%TF.GenerationSoftware,KiCad,Pcbnew,7.0.2-0*%
%TF.CreationDate,2023-05-10T21:03:08+08:00*%
%TF.ProjectId,LM317_supply_module,4c4d3331-375f-4737-9570-706c795f6d6f,rev?*%
%TF.SameCoordinates,Original*%
%TF.FileFunction,Paste,Top*%
%TF.FilePolarity,Positive*%
%FSLAX46Y46*%
G04 Gerber Fmt 4.6, Leading zero omitted, Abs format (unit mm)*
G04 Created by KiCad (PCBNEW 7.0.2-0) date 2023-05-10 21:03:08*
%MOMM*%
%LPD*%
G01*
G04 APERTURE LIST*
G04 Aperture macros list*
%AMRoundRect*
0 Rectangle with rounded corners*
0 $1 Rounding radius*
0 $2 $3 $4 $5 $6 $7 $8 $9 X,Y pos of 4 corners*
0 Add a 4 corners polygon primitive as box body*
4,1,4,$2,$3,$4,$5,$6,$7,$8,$9,$2,$3,0*
0 Add four circle primitives for the rounded corners*
1,1,$1+$1,$2,$3*
1,1,$1+$1,$4,$5*
1,1,$1+$1,$6,$7*
1,1,$1+$1,$8,$9*
0 Add four rect primitives between the rounded corners*
20,1,$1+$1,$2,$3,$4,$5,0*
20,1,$1+$1,$4,$5,$6,$7,0*
20,1,$1+$1,$6,$7,$8,$9,0*
20,1,$1+$1,$8,$9,$2,$3,0*%
G04 Aperture macros list end*
%ADD10RoundRect,0.200000X-0.275000X0.200000X-0.275000X-0.200000X0.275000X-0.200000X0.275000X0.200000X0*%
%ADD11R,1.500000X2.000000*%
%ADD12R,3.800000X2.000000*%
%ADD13RoundRect,0.225000X-0.250000X0.225000X-0.250000X-0.225000X0.250000X-0.225000X0.250000X0.225000X0*%
%ADD14RoundRect,0.225000X0.225000X0.250000X-0.225000X0.250000X-0.225000X-0.250000X0.225000X-0.250000X0*%
%ADD15RoundRect,0.250000X0.650000X-1.000000X0.650000X1.000000X-0.650000X1.000000X-0.650000X-1.000000X0*%
%ADD16RoundRect,0.250000X-0.375000X-0.625000X0.375000X-0.625000X0.375000X0.625000X-0.375000X0.625000X0*%
%ADD17RoundRect,0.225000X-0.225000X-0.250000X0.225000X-0.250000X0.225000X0.250000X-0.225000X0.250000X0*%
%ADD18RoundRect,0.200000X-0.200000X-0.275000X0.200000X-0.275000X0.200000X0.275000X-0.200000X0.275000X0*%
%ADD19RoundRect,0.061000X-0.244000X-0.574000X0.244000X-0.574000X0.244000X0.574000X-0.244000X0.574000X0*%
%ADD20RoundRect,0.061000X0.574000X-0.244000X0.574000X0.244000X-0.574000X0.244000X-0.574000X-0.244000X0*%
%ADD21R,4.100000X3.810000*%
%ADD22RoundRect,0.200000X0.200000X0.275000X-0.200000X0.275000X-0.200000X-0.275000X0.200000X-0.275000X0*%
%ADD23RoundRect,0.250000X-0.300000X-0.300000X0.300000X-0.300000X0.300000X0.300000X-0.300000X0.300000X0*%
%ADD24RoundRect,0.250000X-0.650000X1.000000X-0.650000X-1.000000X0.650000X-1.000000X0.650000X1.000000X0*%
%ADD25RoundRect,0.150000X0.587500X0.150000X-0.587500X0.150000X-0.587500X-0.150000X0.587500X-0.150000X0*%
%ADD26RoundRect,0.250000X0.300000X-0.300000X0.300000X0.300000X-0.300000X0.300000X-0.300000X-0.300000X0*%
%ADD27RoundRect,0.250000X-1.025000X0.787500X-1.025000X-0.787500X1.025000X-0.787500X1.025000X0.787500X0*%
G04 APERTURE END LIST*
D10*
%TO.C,R4*%
X204730000Y-137125000D03*
X204730000Y-138775000D03*
%TD*%
D11*
%TO.C,U1*%
X201030000Y-146000000D03*
X198730000Y-146000000D03*
D12*
X198730000Y-152300000D03*
D11*
X196430000Y-146000000D03*
%TD*%
D13*
%TO.C,C1*%
X202830000Y-137175000D03*
X202830000Y-138725000D03*
%TD*%
D10*
%TO.C,R1*%
X202030000Y-123325000D03*
X202030000Y-124975000D03*
%TD*%
%TO.C,R5*%
X206540000Y-137130000D03*
X206540000Y-138780000D03*
%TD*%
D14*
%TO.C,C3*%
X187705000Y-143950000D03*
X186155000Y-143950000D03*
%TD*%
D15*
%TO.C,D4*%
X211130000Y-150250000D03*
X211130000Y-146250000D03*
%TD*%
D16*
%TO.C,D5*%
X181200000Y-142300000D03*
X184000000Y-142300000D03*
%TD*%
D10*
%TO.C,R7*%
X203630000Y-145425000D03*
X203630000Y-147075000D03*
%TD*%
D17*
%TO.C,C4*%
X215355000Y-154051000D03*
X216905000Y-154051000D03*
%TD*%
D18*
%TO.C,R3*%
X204005000Y-131450000D03*
X205655000Y-131450000D03*
%TD*%
D19*
%TO.C,Q1*%
X196455000Y-138705000D03*
X197725000Y-138705000D03*
X198995000Y-138705000D03*
X200265000Y-138705000D03*
D20*
X196190000Y-134350000D03*
X196190000Y-136730000D03*
D19*
X196455000Y-133350000D03*
X197725000Y-133350000D03*
D21*
X198355000Y-135150500D03*
D19*
X198995000Y-133350000D03*
X200265000Y-133350000D03*
D20*
X200530000Y-134350000D03*
X200530000Y-136730000D03*
%TD*%
D22*
%TO.C,R6*%
X204380000Y-140650000D03*
X202730000Y-140650000D03*
%TD*%
%TO.C,R9*%
X187755000Y-145750000D03*
X186105000Y-145750000D03*
%TD*%
D23*
%TO.C,D2*%
X202830000Y-142850000D03*
X205630000Y-142850000D03*
%TD*%
D24*
%TO.C,D3*%
X206830000Y-146250000D03*
X206830000Y-150250000D03*
%TD*%
D25*
%TO.C,Q2*%
X208677500Y-135300000D03*
X208677500Y-133400000D03*
X206802500Y-134350000D03*
%TD*%
D26*
%TO.C,D1*%
X200230000Y-129650000D03*
X200230000Y-126850000D03*
%TD*%
D10*
%TO.C,R8*%
X200230000Y-123325000D03*
X200230000Y-124975000D03*
%TD*%
D18*
%TO.C,R10*%
X186105000Y-142050000D03*
X187755000Y-142050000D03*
%TD*%
D27*
%TO.C,C2*%
X191330000Y-146037500D03*
X191330000Y-152262500D03*
%TD*%
D18*
%TO.C,R2*%
X204005000Y-129650000D03*
X205655000Y-129650000D03*
%TD*%
M02*
