%TF.GenerationSoftware,KiCad,Pcbnew,7.0.2-0*%
%TF.CreationDate,2023-05-10T21:03:08+08:00*%
%TF.ProjectId,LM317_supply_module,4c4d3331-375f-4737-9570-706c795f6d6f,rev?*%
%TF.SameCoordinates,Original*%
%TF.FileFunction,Copper,L1,Top*%
%TF.FilePolarity,Positive*%
%FSLAX46Y46*%
G04 Gerber Fmt 4.6, Leading zero omitted, Abs format (unit mm)*
G04 Created by KiCad (PCBNEW 7.0.2-0) date 2023-05-10 21:03:08*
%MOMM*%
%LPD*%
G01*
G04 APERTURE LIST*
G04 Aperture macros list*
%AMRoundRect*
0 Rectangle with rounded corners*
0 $1 Rounding radius*
0 $2 $3 $4 $5 $6 $7 $8 $9 X,Y pos of 4 corners*
0 Add a 4 corners polygon primitive as box body*
4,1,4,$2,$3,$4,$5,$6,$7,$8,$9,$2,$3,0*
0 Add four circle primitives for the rounded corners*
1,1,$1+$1,$2,$3*
1,1,$1+$1,$4,$5*
1,1,$1+$1,$6,$7*
1,1,$1+$1,$8,$9*
0 Add four rect primitives between the rounded corners*
20,1,$1+$1,$2,$3,$4,$5,0*
20,1,$1+$1,$4,$5,$6,$7,0*
20,1,$1+$1,$6,$7,$8,$9,0*
20,1,$1+$1,$8,$9,$2,$3,0*%
%AMFreePoly0*
4,1,19,0.500000,-0.750000,0.000000,-0.750000,0.000000,-0.744911,-0.071157,-0.744911,-0.207708,-0.704816,-0.327430,-0.627875,-0.420627,-0.520320,-0.479746,-0.390866,-0.500000,-0.250000,-0.500000,0.250000,-0.479746,0.390866,-0.420627,0.520320,-0.327430,0.627875,-0.207708,0.704816,-0.071157,0.744911,0.000000,0.744911,0.000000,0.750000,0.500000,0.750000,0.500000,-0.750000,0.500000,-0.750000,
$1*%
%AMFreePoly1*
4,1,19,0.000000,0.744911,0.071157,0.744911,0.207708,0.704816,0.327430,0.627875,0.420627,0.520320,0.479746,0.390866,0.500000,0.250000,0.500000,-0.250000,0.479746,-0.390866,0.420627,-0.520320,0.327430,-0.627875,0.207708,-0.704816,0.071157,-0.744911,0.000000,-0.744911,0.000000,-0.750000,-0.500000,-0.750000,-0.500000,0.750000,0.000000,0.750000,0.000000,0.744911,0.000000,0.744911,
$1*%
%AMFreePoly2*
4,1,6,1.000000,0.000000,0.500000,-0.750000,-0.500000,-0.750000,-0.500000,0.750000,0.500000,0.750000,1.000000,0.000000,1.000000,0.000000,$1*%
%AMFreePoly3*
4,1,6,0.500000,-0.750000,-0.650000,-0.750000,-0.150000,0.000000,-0.650000,0.750000,0.500000,0.750000,0.500000,-0.750000,0.500000,-0.750000,$1*%
G04 Aperture macros list end*
%TA.AperFunction,SMDPad,CuDef*%
%ADD10FreePoly0,90.000000*%
%TD*%
%TA.AperFunction,SMDPad,CuDef*%
%ADD11FreePoly1,90.000000*%
%TD*%
%TA.AperFunction,ComponentPad*%
%ADD12O,2.190000X1.740000*%
%TD*%
%TA.AperFunction,ComponentPad*%
%ADD13RoundRect,0.250000X-0.845000X0.620000X-0.845000X-0.620000X0.845000X-0.620000X0.845000X0.620000X0*%
%TD*%
%TA.AperFunction,ComponentPad*%
%ADD14O,3.600000X1.800000*%
%TD*%
%TA.AperFunction,ComponentPad*%
%ADD15RoundRect,0.250000X-1.550000X0.650000X-1.550000X-0.650000X1.550000X-0.650000X1.550000X0.650000X0*%
%TD*%
%TA.AperFunction,SMDPad,CuDef*%
%ADD16FreePoly2,0.000000*%
%TD*%
%TA.AperFunction,SMDPad,CuDef*%
%ADD17FreePoly3,0.000000*%
%TD*%
%TA.AperFunction,SMDPad,CuDef*%
%ADD18RoundRect,0.200000X-0.275000X0.200000X-0.275000X-0.200000X0.275000X-0.200000X0.275000X0.200000X0*%
%TD*%
%TA.AperFunction,SMDPad,CuDef*%
%ADD19R,1.500000X2.000000*%
%TD*%
%TA.AperFunction,SMDPad,CuDef*%
%ADD20R,3.800000X2.000000*%
%TD*%
%TA.AperFunction,SMDPad,CuDef*%
%ADD21RoundRect,0.225000X-0.250000X0.225000X-0.250000X-0.225000X0.250000X-0.225000X0.250000X0.225000X0*%
%TD*%
%TA.AperFunction,ComponentPad*%
%ADD22RoundRect,0.250000X-0.620000X-0.845000X0.620000X-0.845000X0.620000X0.845000X-0.620000X0.845000X0*%
%TD*%
%TA.AperFunction,ComponentPad*%
%ADD23O,1.740000X2.190000*%
%TD*%
%TA.AperFunction,SMDPad,CuDef*%
%ADD24RoundRect,0.225000X0.225000X0.250000X-0.225000X0.250000X-0.225000X-0.250000X0.225000X-0.250000X0*%
%TD*%
%TA.AperFunction,SMDPad,CuDef*%
%ADD25RoundRect,0.250000X0.650000X-1.000000X0.650000X1.000000X-0.650000X1.000000X-0.650000X-1.000000X0*%
%TD*%
%TA.AperFunction,SMDPad,CuDef*%
%ADD26RoundRect,0.250000X-0.375000X-0.625000X0.375000X-0.625000X0.375000X0.625000X-0.375000X0.625000X0*%
%TD*%
%TA.AperFunction,SMDPad,CuDef*%
%ADD27RoundRect,0.225000X-0.225000X-0.250000X0.225000X-0.250000X0.225000X0.250000X-0.225000X0.250000X0*%
%TD*%
%TA.AperFunction,SMDPad,CuDef*%
%ADD28RoundRect,0.200000X-0.200000X-0.275000X0.200000X-0.275000X0.200000X0.275000X-0.200000X0.275000X0*%
%TD*%
%TA.AperFunction,SMDPad,CuDef*%
%ADD29RoundRect,0.061000X-0.244000X-0.574000X0.244000X-0.574000X0.244000X0.574000X-0.244000X0.574000X0*%
%TD*%
%TA.AperFunction,SMDPad,CuDef*%
%ADD30RoundRect,0.061000X0.574000X-0.244000X0.574000X0.244000X-0.574000X0.244000X-0.574000X-0.244000X0*%
%TD*%
%TA.AperFunction,SMDPad,CuDef*%
%ADD31R,4.100000X3.810000*%
%TD*%
%TA.AperFunction,SMDPad,CuDef*%
%ADD32RoundRect,0.200000X0.200000X0.275000X-0.200000X0.275000X-0.200000X-0.275000X0.200000X-0.275000X0*%
%TD*%
%TA.AperFunction,SMDPad,CuDef*%
%ADD33RoundRect,0.250000X-0.300000X-0.300000X0.300000X-0.300000X0.300000X0.300000X-0.300000X0.300000X0*%
%TD*%
%TA.AperFunction,SMDPad,CuDef*%
%ADD34RoundRect,0.250000X-0.650000X1.000000X-0.650000X-1.000000X0.650000X-1.000000X0.650000X1.000000X0*%
%TD*%
%TA.AperFunction,ComponentPad*%
%ADD35C,1.400000*%
%TD*%
%TA.AperFunction,SMDPad,CuDef*%
%ADD36RoundRect,0.150000X0.587500X0.150000X-0.587500X0.150000X-0.587500X-0.150000X0.587500X-0.150000X0*%
%TD*%
%TA.AperFunction,SMDPad,CuDef*%
%ADD37RoundRect,0.250000X0.300000X-0.300000X0.300000X0.300000X-0.300000X0.300000X-0.300000X-0.300000X0*%
%TD*%
%TA.AperFunction,SMDPad,CuDef*%
%ADD38RoundRect,0.250000X-1.025000X0.787500X-1.025000X-0.787500X1.025000X-0.787500X1.025000X0.787500X0*%
%TD*%
%TA.AperFunction,Conductor*%
%ADD39C,0.500000*%
%TD*%
%TA.AperFunction,Conductor*%
%ADD40C,0.250000*%
%TD*%
%TA.AperFunction,Conductor*%
%ADD41C,0.400000*%
%TD*%
%TA.AperFunction,Conductor*%
%ADD42C,1.500000*%
%TD*%
%TA.AperFunction,Conductor*%
%ADD43C,0.800000*%
%TD*%
%TA.AperFunction,Conductor*%
%ADD44C,0.300000*%
%TD*%
G04 APERTURE END LIST*
%TA.AperFunction,EtchedComponent*%
%TO.C,JP3*%
G36*
X189630000Y-127790000D02*
G01*
X189030000Y-127790000D01*
X189030000Y-127290000D01*
X189630000Y-127290000D01*
X189630000Y-127790000D01*
G37*
%TD.AperFunction*%
%TD*%
D10*
%TO.P,JP3,1,A*%
%TO.N,Earth*%
X189330000Y-128190000D03*
D11*
%TO.P,JP3,2,B*%
%TO.N,GNDREF*%
X189330000Y-126890000D03*
%TD*%
D12*
%TO.P,J3,2,Pin_2*%
%TO.N,/VOUT*%
X216900000Y-149590000D03*
D13*
%TO.P,J3,1,Pin_1*%
%TO.N,GNDREF*%
X216900000Y-147050000D03*
%TD*%
D14*
%TO.P,J1,2,Pin_2*%
%TO.N,/VIN*%
X186162500Y-137510000D03*
D15*
%TO.P,J1,1,Pin_1*%
%TO.N,Earth*%
X186162500Y-133700000D03*
%TD*%
D16*
%TO.P,JP1,1,A*%
%TO.N,Net-(D3-A)*%
X206180000Y-153450000D03*
D17*
%TO.P,JP1,2,B*%
%TO.N,Net-(D3-K)*%
X207630000Y-153450000D03*
%TD*%
D18*
%TO.P,R4,1*%
%TO.N,/VIN*%
X204730000Y-137125000D03*
%TO.P,R4,2*%
%TO.N,Net-(D2-A)*%
X204730000Y-138775000D03*
%TD*%
D19*
%TO.P,U1,1,ADJ*%
%TO.N,Net-(U1-ADJ)*%
X201030000Y-146000000D03*
%TO.P,U1,2,VO*%
%TO.N,Net-(D3-A)*%
X198730000Y-146000000D03*
D20*
X198730000Y-152300000D03*
D19*
%TO.P,U1,3,VI*%
%TO.N,Net-(U1-VI)*%
X196430000Y-146000000D03*
%TD*%
D21*
%TO.P,C1,1*%
%TO.N,/VIN*%
X202830000Y-137175000D03*
%TO.P,C1,2*%
%TO.N,Net-(D2-K)*%
X202830000Y-138725000D03*
%TD*%
D22*
%TO.P,J2,1,Pin_1*%
%TO.N,Earth*%
X192780000Y-128200000D03*
D23*
%TO.P,J2,2,Pin_2*%
%TO.N,/VIN*%
X195320000Y-128200000D03*
%TD*%
D18*
%TO.P,R1,1*%
%TO.N,Earth*%
X202030000Y-123325000D03*
%TO.P,R1,2*%
%TO.N,Net-(SW1-C)*%
X202030000Y-124975000D03*
%TD*%
%TO.P,R5,1*%
%TO.N,Net-(Q2-D)*%
X206540000Y-137130000D03*
%TO.P,R5,2*%
%TO.N,Net-(D2-A)*%
X206540000Y-138780000D03*
%TD*%
D24*
%TO.P,C3,1*%
%TO.N,Net-(U1-VI)*%
X187705000Y-143950000D03*
%TO.P,C3,2*%
%TO.N,GNDREF*%
X186155000Y-143950000D03*
%TD*%
D25*
%TO.P,D4,1,K*%
%TO.N,/VOUT*%
X211130000Y-150250000D03*
%TO.P,D4,2,A*%
%TO.N,Net-(D3-K)*%
X211130000Y-146250000D03*
%TD*%
D26*
%TO.P,D5,1,K*%
%TO.N,GNDREF*%
X181200000Y-142300000D03*
%TO.P,D5,2,A*%
%TO.N,Net-(D5-A)*%
X184000000Y-142300000D03*
%TD*%
D18*
%TO.P,R7,1*%
%TO.N,Net-(U1-ADJ)*%
X203630000Y-145425000D03*
%TO.P,R7,2*%
%TO.N,Net-(D3-A)*%
X203630000Y-147075000D03*
%TD*%
D27*
%TO.P,C4,1*%
%TO.N,/VOUT*%
X215355000Y-154051000D03*
%TO.P,C4,2*%
%TO.N,GNDREF*%
X216905000Y-154051000D03*
%TD*%
D28*
%TO.P,R3,1*%
%TO.N,/VIN*%
X204005000Y-131450000D03*
%TO.P,R3,2*%
%TO.N,Net-(Q2-G)*%
X205655000Y-131450000D03*
%TD*%
D29*
%TO.P,Q1,1,S*%
%TO.N,Net-(U1-VI)*%
X196455000Y-138705000D03*
%TO.P,Q1,2,S*%
X197725000Y-138705000D03*
%TO.P,Q1,3,S*%
X198995000Y-138705000D03*
%TO.P,Q1,4,G*%
%TO.N,Net-(D2-K)*%
X200265000Y-138705000D03*
D30*
%TO.P,Q1,5,D*%
%TO.N,/VIN*%
X196190000Y-134350000D03*
X196190000Y-136730000D03*
D29*
X196455000Y-133350000D03*
X197725000Y-133350000D03*
D31*
X198355000Y-135150500D03*
D29*
X198995000Y-133350000D03*
X200265000Y-133350000D03*
D30*
X200530000Y-134350000D03*
X200530000Y-136730000D03*
%TD*%
D32*
%TO.P,R6,1*%
%TO.N,Net-(D2-A)*%
X204380000Y-140650000D03*
%TO.P,R6,2*%
%TO.N,Net-(D2-K)*%
X202730000Y-140650000D03*
%TD*%
%TO.P,R9,1*%
%TO.N,Net-(U1-VI)*%
X187755000Y-145750000D03*
%TO.P,R9,2*%
%TO.N,GNDREF*%
X186105000Y-145750000D03*
%TD*%
D33*
%TO.P,D2,1,K*%
%TO.N,Net-(D2-K)*%
X202830000Y-142850000D03*
%TO.P,D2,2,A*%
%TO.N,Net-(D2-A)*%
X205630000Y-142850000D03*
%TD*%
D34*
%TO.P,D3,1,K*%
%TO.N,Net-(D3-K)*%
X206830000Y-146250000D03*
%TO.P,D3,2,A*%
%TO.N,Net-(D3-A)*%
X206830000Y-150250000D03*
%TD*%
D16*
%TO.P,JP2,1,A*%
%TO.N,Net-(D3-K)*%
X210205000Y-153450000D03*
D17*
%TO.P,JP2,2,B*%
%TO.N,/VOUT*%
X211655000Y-153450000D03*
%TD*%
D35*
%TO.P,RV1,1,1*%
%TO.N,GNDREF*%
X215935000Y-125867500D03*
%TO.P,RV1,2,2*%
%TO.N,Net-(U1-ADJ)*%
X215935000Y-128367500D03*
%TO.P,RV1,3,3*%
X215935000Y-130867500D03*
%TD*%
%TO.P,SW1,1,A*%
%TO.N,Net-(SW1-A)*%
X210380000Y-126150000D03*
X205880000Y-126150000D03*
%TO.P,SW1,2,B*%
%TO.N,Net-(Q2-G)*%
X210380000Y-124150000D03*
X205880000Y-124150000D03*
%TO.P,SW1,3,C*%
%TO.N,Net-(SW1-C)*%
X210380000Y-122150000D03*
X205880000Y-122150000D03*
%TD*%
D36*
%TO.P,Q2,1,D*%
%TO.N,Net-(Q2-D)*%
X208677500Y-135300000D03*
%TO.P,Q2,2,G*%
%TO.N,Net-(Q2-G)*%
X208677500Y-133400000D03*
%TO.P,Q2,3,S*%
%TO.N,GNDREF*%
X206802500Y-134350000D03*
%TD*%
D37*
%TO.P,D1,1,K*%
%TO.N,/VIN*%
X200230000Y-129650000D03*
%TO.P,D1,2,A*%
%TO.N,Net-(D1-A)*%
X200230000Y-126850000D03*
%TD*%
D18*
%TO.P,R8,1*%
%TO.N,Earth*%
X200230000Y-123325000D03*
%TO.P,R8,2*%
%TO.N,Net-(D1-A)*%
X200230000Y-124975000D03*
%TD*%
D28*
%TO.P,R10,1*%
%TO.N,Net-(D5-A)*%
X186105000Y-142050000D03*
%TO.P,R10,2*%
%TO.N,Net-(U1-VI)*%
X187755000Y-142050000D03*
%TD*%
D38*
%TO.P,C2,1*%
%TO.N,Net-(U1-VI)*%
X191330000Y-146037500D03*
%TO.P,C2,2*%
%TO.N,GNDREF*%
X191330000Y-152262500D03*
%TD*%
D28*
%TO.P,R2,1*%
%TO.N,/VIN*%
X204005000Y-129650000D03*
%TO.P,R2,2*%
%TO.N,Net-(SW1-A)*%
X205655000Y-129650000D03*
%TD*%
D39*
%TO.N,Earth*%
X200230000Y-123325000D02*
X199885000Y-123325000D01*
X199885000Y-123325000D02*
X197030000Y-126180000D01*
X197030000Y-126180000D02*
X193390000Y-126180000D01*
X193390000Y-126180000D02*
X192780000Y-126790000D01*
X192780000Y-126790000D02*
X192780000Y-128200000D01*
X202030000Y-123325000D02*
X200230000Y-123325000D01*
D40*
X189330000Y-128190000D02*
X186162500Y-131357500D01*
X186162500Y-131357500D02*
X186162500Y-133700000D01*
X192780000Y-128200000D02*
X189340000Y-128200000D01*
X189340000Y-128200000D02*
X189330000Y-128190000D01*
%TO.N,/VIN*%
X196190000Y-134350000D02*
X194490000Y-134350000D01*
X191330000Y-137510000D02*
X186162500Y-137510000D01*
X194490000Y-134350000D02*
X191330000Y-137510000D01*
X200530000Y-136730000D02*
X202385000Y-136730000D01*
X196847500Y-129650000D02*
X200230000Y-129650000D01*
X195380000Y-128182500D02*
X195380000Y-132275000D01*
X204680000Y-137175000D02*
X204730000Y-137125000D01*
X200230000Y-129650000D02*
X200230000Y-133315000D01*
X200230000Y-133315000D02*
X200265000Y-133350000D01*
X202385000Y-136730000D02*
X202830000Y-137175000D01*
X204005000Y-129650000D02*
X204005000Y-131450000D01*
X203130000Y-134350000D02*
X204005000Y-133475000D01*
X195380000Y-128182500D02*
X196847500Y-129650000D01*
X202830000Y-137175000D02*
X204680000Y-137175000D01*
X204005000Y-133475000D02*
X204005000Y-131450000D01*
X200530000Y-134350000D02*
X203130000Y-134350000D01*
X195380000Y-132275000D02*
X196455000Y-133350000D01*
%TO.N,Net-(D2-K)*%
X202730000Y-138825000D02*
X202830000Y-138725000D01*
D41*
X200265000Y-138705000D02*
X202025000Y-138705000D01*
X202025000Y-138705000D02*
X202810000Y-138705000D01*
X202730000Y-140650000D02*
X202533000Y-140847000D01*
X202660000Y-140580000D02*
X202730000Y-140650000D01*
X202533000Y-140847000D02*
X202533000Y-142553000D01*
X202660000Y-138705000D02*
X202660000Y-140580000D01*
D40*
X202810000Y-138705000D02*
X202830000Y-138725000D01*
D41*
X202025000Y-138705000D02*
X202660000Y-138705000D01*
X202533000Y-142553000D02*
X202830000Y-142850000D01*
D40*
%TO.N,/VOUT*%
X211780000Y-149600000D02*
X213830000Y-149600000D01*
X215355000Y-151142500D02*
X215355000Y-154051000D01*
X214754000Y-153450000D02*
X215355000Y-154051000D01*
X211130000Y-150250000D02*
X211780000Y-149600000D01*
X211655000Y-153450000D02*
X214754000Y-153450000D01*
X213830000Y-149600000D02*
X216897500Y-149600000D01*
X216897500Y-149600000D02*
X215355000Y-151142500D01*
D39*
%TO.N,Net-(D1-A)*%
X200230000Y-124975000D02*
X200230000Y-126850000D01*
D41*
%TO.N,Net-(D2-A)*%
X204730000Y-140081000D02*
X204730000Y-138775000D01*
X204730000Y-138775000D02*
X206535000Y-138775000D01*
X204730000Y-140081000D02*
X204730000Y-142850000D01*
X204730000Y-142850000D02*
X205630000Y-142850000D01*
X206535000Y-138775000D02*
X206540000Y-138780000D01*
X204730000Y-140650000D02*
X204380000Y-140650000D01*
X204730000Y-140081000D02*
X204730000Y-140650000D01*
D40*
%TO.N,Net-(D3-K)*%
X208930000Y-153450000D02*
X207630000Y-153450000D01*
X210205000Y-153450000D02*
X208930000Y-153450000D01*
D42*
X208930000Y-146250000D02*
X211130000Y-146250000D01*
X206830000Y-146250000D02*
X208930000Y-146250000D01*
D43*
X208930000Y-153450000D02*
X208930000Y-146250000D01*
D40*
%TO.N,Net-(D3-A)*%
X204530000Y-150250000D02*
X206830000Y-150250000D01*
X205980000Y-153650000D02*
X206180000Y-153450000D01*
X203630000Y-147075000D02*
X203630000Y-149350000D01*
X198730000Y-146000000D02*
X198730000Y-152300000D01*
X198730000Y-152300000D02*
X203180000Y-152300000D01*
X204530000Y-153650000D02*
X205980000Y-153650000D01*
X206180000Y-153450000D02*
X206180000Y-150900000D01*
X203180000Y-152300000D02*
X204530000Y-153650000D01*
X203630000Y-149350000D02*
X204530000Y-150250000D01*
X206180000Y-150900000D02*
X206830000Y-150250000D01*
%TO.N,Net-(Q2-D)*%
X208677500Y-136112500D02*
X208677500Y-135300000D01*
X207660000Y-137130000D02*
X208677500Y-136112500D01*
X206540000Y-137130000D02*
X207660000Y-137130000D01*
D39*
%TO.N,Net-(Q2-G)*%
X205880000Y-124150000D02*
X210380000Y-124150000D01*
X211530000Y-124150000D02*
X211930000Y-124550000D01*
X208720000Y-131450000D02*
X208720000Y-133357500D01*
X210380000Y-124150000D02*
X211530000Y-124150000D01*
X211930000Y-128320000D02*
X208800000Y-131450000D01*
X208800000Y-131450000D02*
X208720000Y-131450000D01*
X208720000Y-133357500D02*
X208677500Y-133400000D01*
X211930000Y-124550000D02*
X211930000Y-128320000D01*
X205655000Y-131450000D02*
X208720000Y-131450000D01*
%TO.N,Net-(SW1-C)*%
X202030000Y-124975000D02*
X203055000Y-124975000D01*
X205880000Y-122150000D02*
X210380000Y-122150000D01*
X203055000Y-124975000D02*
X205880000Y-122150000D01*
D40*
%TO.N,Net-(SW1-A)*%
X205880000Y-129425000D02*
X205655000Y-129650000D01*
D39*
X205880000Y-126150000D02*
X205880000Y-129425000D01*
X205880000Y-126150000D02*
X210380000Y-126150000D01*
D40*
%TO.N,Net-(U1-ADJ)*%
X203655000Y-145425000D02*
X203630000Y-145425000D01*
D44*
X207710000Y-138400000D02*
X207710000Y-143030000D01*
X215935000Y-128367500D02*
X215935000Y-130867500D01*
X211190000Y-137590000D02*
X208520000Y-137590000D01*
D40*
X201880000Y-146000000D02*
X201030000Y-146000000D01*
X202455000Y-145425000D02*
X201880000Y-146000000D01*
D44*
X215935000Y-132845000D02*
X211190000Y-137590000D01*
X207710000Y-143030000D02*
X206390000Y-144350000D01*
X215935000Y-130867500D02*
X215935000Y-132845000D01*
X208520000Y-137590000D02*
X207710000Y-138400000D01*
X206390000Y-144350000D02*
X204730000Y-144350000D01*
D40*
X203630000Y-145425000D02*
X202455000Y-145425000D01*
D44*
X204730000Y-144350000D02*
X203655000Y-145425000D01*
D39*
%TO.N,Net-(D5-A)*%
X184317500Y-142050000D02*
X186105000Y-142050000D01*
D40*
%TO.N,Net-(U1-VI)*%
X196455000Y-138705000D02*
X197725000Y-138705000D01*
X191367500Y-146000000D02*
X196430000Y-146000000D01*
X187755000Y-142050000D02*
X187755000Y-145750000D01*
X198995000Y-138705000D02*
X197725000Y-138705000D01*
X191330000Y-146037500D02*
X191367500Y-146000000D01*
X196455000Y-138705000D02*
X196430000Y-138730000D01*
X187755000Y-145750000D02*
X191042500Y-145750000D01*
X196430000Y-138730000D02*
X196430000Y-146000000D01*
X191042500Y-145750000D02*
X191330000Y-146037500D01*
%TD*%
%TA.AperFunction,Conductor*%
%TO.N,Net-(D3-K)*%
G36*
X209943039Y-152719685D02*
G01*
X209988794Y-152772489D01*
X210000000Y-152824000D01*
X210000000Y-154076000D01*
X209980315Y-154143039D01*
X209927511Y-154188794D01*
X209876000Y-154200000D01*
X207519408Y-154200000D01*
X207452369Y-154180315D01*
X207406614Y-154127511D01*
X207396670Y-154058353D01*
X207416234Y-154007217D01*
X207600724Y-153730482D01*
X207609912Y-153716185D01*
X207667490Y-153584284D01*
X207685576Y-153441504D01*
X207662703Y-153299411D01*
X207600724Y-153169518D01*
X207600721Y-153169514D01*
X207416235Y-152892783D01*
X207395427Y-152826083D01*
X207413982Y-152758723D01*
X207466010Y-152712087D01*
X207519409Y-152700000D01*
X209876000Y-152700000D01*
X209943039Y-152719685D01*
G37*
%TD.AperFunction*%
%TD*%
%TA.AperFunction,Conductor*%
%TO.N,Net-(D2-K)*%
G36*
X203102795Y-138309685D02*
G01*
X203148550Y-138362489D01*
X203159756Y-138414244D01*
X203150243Y-143256244D01*
X203130427Y-143323244D01*
X203077533Y-143368895D01*
X203026243Y-143380000D01*
X200084000Y-143380000D01*
X200016961Y-143360315D01*
X199971206Y-143307511D01*
X199960000Y-143256000D01*
X199960000Y-138414000D01*
X199979685Y-138346961D01*
X200032489Y-138301206D01*
X200084000Y-138290000D01*
X203035756Y-138290000D01*
X203102795Y-138309685D01*
G37*
%TD.AperFunction*%
%TD*%
%TA.AperFunction,Conductor*%
%TO.N,Net-(U1-VI)*%
G36*
X199243039Y-138219685D02*
G01*
X199288794Y-138272489D01*
X199300000Y-138324000D01*
X199300000Y-142378117D01*
X199280315Y-142445156D01*
X199250551Y-142477204D01*
X197200000Y-144020000D01*
X197200000Y-146448638D01*
X197180315Y-146515677D01*
X197163681Y-146536319D01*
X196836319Y-146863681D01*
X196774996Y-146897166D01*
X196748638Y-146900000D01*
X188351362Y-146900000D01*
X188284323Y-146880315D01*
X188263681Y-146863681D01*
X187436319Y-146036319D01*
X187402834Y-145974996D01*
X187400000Y-145948638D01*
X187400000Y-141951361D01*
X187419685Y-141884322D01*
X187436314Y-141863685D01*
X189263681Y-140036318D01*
X189325004Y-140002834D01*
X189351362Y-140000000D01*
X193300000Y-140000000D01*
X193500000Y-139800000D01*
X195063681Y-138236318D01*
X195125004Y-138202834D01*
X195151362Y-138200000D01*
X199176000Y-138200000D01*
X199243039Y-138219685D01*
G37*
%TD.AperFunction*%
%TD*%
%TA.AperFunction,Conductor*%
%TO.N,Net-(D3-A)*%
G36*
X199555039Y-145053685D02*
G01*
X199600794Y-145106489D01*
X199612000Y-145158000D01*
X199612000Y-147066000D01*
X200501000Y-147955000D01*
X201898000Y-147955000D01*
X203131680Y-146721318D01*
X203193004Y-146687834D01*
X203219362Y-146685000D01*
X204259638Y-146685000D01*
X204326677Y-146704685D01*
X204347319Y-146721319D01*
X204401681Y-146775681D01*
X204435166Y-146837004D01*
X204438000Y-146863362D01*
X204438000Y-148082000D01*
X205327000Y-148971000D01*
X207434638Y-148971000D01*
X207501677Y-148990685D01*
X207522319Y-149007319D01*
X207576681Y-149061681D01*
X207610166Y-149123004D01*
X207613000Y-149149362D01*
X207613000Y-151260000D01*
X207593315Y-151327039D01*
X207540511Y-151372794D01*
X207489000Y-151384000D01*
X207485999Y-151384000D01*
X206724000Y-152145998D01*
X206723999Y-152146000D01*
X206723999Y-152202779D01*
X206704314Y-152269818D01*
X206668782Y-152305951D01*
X206642498Y-152323473D01*
X206550089Y-152433813D01*
X206492509Y-152565715D01*
X206474424Y-152708496D01*
X206497296Y-152850587D01*
X206559277Y-152980484D01*
X206703174Y-153196328D01*
X206723982Y-153263027D01*
X206724000Y-153265111D01*
X206724000Y-153634887D01*
X206704315Y-153701926D01*
X206703174Y-153703670D01*
X206560648Y-153917459D01*
X206560640Y-153917470D01*
X206559276Y-153919518D01*
X206558078Y-153921669D01*
X206520045Y-153989949D01*
X206490982Y-154088934D01*
X206453208Y-154147712D01*
X206389653Y-154176738D01*
X206372005Y-154178000D01*
X203092362Y-154178000D01*
X203025323Y-154158315D01*
X203004681Y-154141681D01*
X202406000Y-153543000D01*
X196615362Y-153543000D01*
X196548323Y-153523315D01*
X196527681Y-153506681D01*
X195330319Y-152309319D01*
X195296834Y-152247996D01*
X195294000Y-152221638D01*
X195294000Y-148514362D01*
X195313685Y-148447323D01*
X195330319Y-148426681D01*
X195765681Y-147991319D01*
X195827004Y-147957834D01*
X195853362Y-147955000D01*
X197199000Y-147955000D01*
X197961000Y-147193000D01*
X197961000Y-145157999D01*
X197980685Y-145090961D01*
X198033489Y-145045206D01*
X198085000Y-145034000D01*
X199488000Y-145034000D01*
X199555039Y-145053685D01*
G37*
%TD.AperFunction*%
%TD*%
%TA.AperFunction,Conductor*%
%TO.N,/VIN*%
G36*
X197849677Y-127019685D02*
G01*
X197870319Y-127036319D01*
X199612000Y-128778000D01*
X203878638Y-128778000D01*
X203945677Y-128797685D01*
X203966319Y-128814319D01*
X204401681Y-129249681D01*
X204435166Y-129311004D01*
X204438000Y-129337362D01*
X204437999Y-135381999D01*
X204438000Y-135382000D01*
X205290682Y-136234682D01*
X205324166Y-136296003D01*
X205327000Y-136322361D01*
X205327000Y-137362638D01*
X205307315Y-137429677D01*
X205290681Y-137450319D01*
X205109319Y-137631681D01*
X205047996Y-137665166D01*
X205021638Y-137668000D01*
X202584362Y-137668000D01*
X202517323Y-137648315D01*
X202496681Y-137631681D01*
X202025000Y-137160000D01*
X195294000Y-137160000D01*
X193284492Y-138819515D01*
X193220266Y-138847026D01*
X193205268Y-138847904D01*
X184881206Y-138830109D01*
X184814209Y-138810281D01*
X184793790Y-138793790D01*
X184136319Y-138136319D01*
X184102834Y-138074996D01*
X184100000Y-138048638D01*
X184100000Y-136579357D01*
X184119685Y-136512318D01*
X184146232Y-136482775D01*
X184836027Y-135927355D01*
X184900589Y-135900642D01*
X184913607Y-135899937D01*
X191850000Y-135890000D01*
X194170000Y-133720000D01*
X194167025Y-127676281D01*
X194186677Y-127609233D01*
X194203199Y-127588684D01*
X194753657Y-127036459D01*
X194814928Y-127002876D01*
X194841480Y-127000000D01*
X197782638Y-127000000D01*
X197849677Y-127019685D01*
G37*
%TD.AperFunction*%
%TD*%
%TA.AperFunction,Conductor*%
%TO.N,Net-(U1-ADJ)*%
G36*
X204015677Y-145129685D02*
G01*
X204036319Y-145146319D01*
X204043681Y-145153681D01*
X204077166Y-145215004D01*
X204080000Y-145241362D01*
X204080000Y-145658638D01*
X204060315Y-145725677D01*
X204043681Y-145746319D01*
X204016319Y-145773681D01*
X203954996Y-145807166D01*
X203928638Y-145810000D01*
X202629999Y-145810000D01*
X201646319Y-146793681D01*
X201584996Y-146827166D01*
X201558638Y-146830000D01*
X200639738Y-146830000D01*
X200572699Y-146810315D01*
X200567664Y-146806903D01*
X200441926Y-146717090D01*
X200398816Y-146662106D01*
X200390000Y-146616187D01*
X200390000Y-145351361D01*
X200409685Y-145284322D01*
X200426310Y-145263689D01*
X200543683Y-145146316D01*
X200605004Y-145112834D01*
X200631362Y-145110000D01*
X203948638Y-145110000D01*
X204015677Y-145129685D01*
G37*
%TD.AperFunction*%
%TD*%
%TA.AperFunction,Conductor*%
%TO.N,/VOUT*%
G36*
X219058677Y-148863685D02*
G01*
X219079319Y-148880319D01*
X219895680Y-149696680D01*
X219929165Y-149758003D01*
X219931999Y-149784361D01*
X219932000Y-151459638D01*
X219912315Y-151526677D01*
X219895681Y-151547319D01*
X218698319Y-152744681D01*
X218636996Y-152778166D01*
X218610638Y-152781000D01*
X216375999Y-152781000D01*
X216122000Y-153034999D01*
X216122000Y-153288522D01*
X216103538Y-153353619D01*
X216017997Y-153492300D01*
X215964650Y-153653292D01*
X215954819Y-153749522D01*
X215954817Y-153749542D01*
X215954500Y-153752655D01*
X215954500Y-153755802D01*
X215954500Y-153755803D01*
X215954500Y-154346194D01*
X215954500Y-154346213D01*
X215954501Y-154349344D01*
X215954820Y-154352476D01*
X215954821Y-154352477D01*
X215964650Y-154448707D01*
X216007206Y-154577132D01*
X216009608Y-154646961D01*
X215977182Y-154703817D01*
X215877251Y-154803748D01*
X215777317Y-154903682D01*
X215715997Y-154937166D01*
X215689638Y-154940000D01*
X212744362Y-154940000D01*
X212677323Y-154920315D01*
X212656681Y-154903681D01*
X211713319Y-153960319D01*
X211679834Y-153898996D01*
X211677000Y-153872639D01*
X211677000Y-153872638D01*
X211677000Y-153645651D01*
X211687355Y-153596046D01*
X211692490Y-153584285D01*
X211710576Y-153441504D01*
X211695517Y-153347956D01*
X211685913Y-153288287D01*
X211677000Y-153248911D01*
X211677000Y-152781000D01*
X211433075Y-152781000D01*
X211366036Y-152761315D01*
X211329901Y-152725783D01*
X211126808Y-152421144D01*
X211125724Y-152419518D01*
X211087143Y-152368872D01*
X211087141Y-152368869D01*
X210978374Y-152274623D01*
X210847457Y-152214834D01*
X210705000Y-152194353D01*
X210633715Y-152194353D01*
X210566676Y-152174668D01*
X210546034Y-152158034D01*
X210189319Y-151801319D01*
X210155834Y-151739996D01*
X210153000Y-151713638D01*
X210153000Y-148968000D01*
X210172685Y-148900961D01*
X210225489Y-148855206D01*
X210277000Y-148844000D01*
X218991638Y-148844000D01*
X219058677Y-148863685D01*
G37*
%TD.AperFunction*%
%TD*%
%TA.AperFunction,Conductor*%
%TO.N,GNDREF*%
G36*
X225372539Y-119870185D02*
G01*
X225418294Y-119922989D01*
X225429500Y-119974500D01*
X225429500Y-157425500D01*
X225409815Y-157492539D01*
X225357011Y-157538294D01*
X225305500Y-157549500D01*
X177854500Y-157549500D01*
X177787461Y-157529815D01*
X177741706Y-157477011D01*
X177730500Y-157425500D01*
X177730500Y-154267764D01*
X179345787Y-154267764D01*
X179375413Y-154537016D01*
X179408226Y-154662525D01*
X179443928Y-154799088D01*
X179540355Y-155025999D01*
X179549871Y-155048392D01*
X179690982Y-155279611D01*
X179826475Y-155442423D01*
X179864255Y-155487820D01*
X180065998Y-155668582D01*
X180291910Y-155818044D01*
X180398211Y-155867876D01*
X180537177Y-155933021D01*
X180796562Y-156011058D01*
X180796569Y-156011060D01*
X181064561Y-156050500D01*
X181064564Y-156050500D01*
X181265369Y-156050500D01*
X181267631Y-156050500D01*
X181470156Y-156035677D01*
X181734553Y-155976780D01*
X181987558Y-155880014D01*
X182223777Y-155747441D01*
X182438177Y-155581888D01*
X182626186Y-155386881D01*
X182783799Y-155166579D01*
X182907656Y-154925675D01*
X182995118Y-154669305D01*
X183044319Y-154402933D01*
X183054212Y-154132235D01*
X183024586Y-153862982D01*
X182956072Y-153600912D01*
X182850130Y-153351610D01*
X182709018Y-153120390D01*
X182709017Y-153120388D01*
X182535746Y-152912181D01*
X182430759Y-152818112D01*
X182334002Y-152731418D01*
X182108090Y-152581956D01*
X182108086Y-152581954D01*
X181959928Y-152512500D01*
X189555001Y-152512500D01*
X189555001Y-153096829D01*
X189555321Y-153103111D01*
X189565493Y-153202695D01*
X189620642Y-153369122D01*
X189712683Y-153518345D01*
X189836654Y-153642316D01*
X189985877Y-153734357D01*
X190152303Y-153789506D01*
X190251890Y-153799680D01*
X190258168Y-153799999D01*
X191079999Y-153799999D01*
X191079999Y-153799998D01*
X191080000Y-152512500D01*
X191580000Y-152512500D01*
X191580000Y-153799999D01*
X192401829Y-153799999D01*
X192408111Y-153799678D01*
X192507695Y-153789506D01*
X192674122Y-153734357D01*
X192823345Y-153642316D01*
X192947316Y-153518345D01*
X193039357Y-153369122D01*
X193094506Y-153202696D01*
X193104680Y-153103109D01*
X193105000Y-153096831D01*
X193105000Y-152512500D01*
X191580000Y-152512500D01*
X191080000Y-152512500D01*
X189555001Y-152512500D01*
X181959928Y-152512500D01*
X181862822Y-152466978D01*
X181603437Y-152388941D01*
X181603431Y-152388940D01*
X181335439Y-152349500D01*
X181132369Y-152349500D01*
X181130120Y-152349664D01*
X181130109Y-152349665D01*
X180929843Y-152364322D01*
X180665449Y-152423219D01*
X180412441Y-152519986D01*
X180176223Y-152652559D01*
X179961825Y-152818109D01*
X179773813Y-153013120D01*
X179616201Y-153233420D01*
X179492342Y-153474329D01*
X179404881Y-153730695D01*
X179355680Y-153997066D01*
X179345787Y-154267764D01*
X177730500Y-154267764D01*
X177730500Y-152012500D01*
X189555000Y-152012500D01*
X191080000Y-152012500D01*
X191080000Y-150725000D01*
X191580000Y-150725000D01*
X191580000Y-152012500D01*
X193104999Y-152012500D01*
X193104999Y-151428170D01*
X193104678Y-151421888D01*
X193094506Y-151322304D01*
X193039357Y-151155877D01*
X192947316Y-151006654D01*
X192823345Y-150882683D01*
X192674122Y-150790642D01*
X192507696Y-150735493D01*
X192408109Y-150725319D01*
X192401832Y-150725000D01*
X191580000Y-150725000D01*
X191080000Y-150725000D01*
X190258171Y-150725000D01*
X190251888Y-150725321D01*
X190152304Y-150735493D01*
X189985877Y-150790642D01*
X189836654Y-150882683D01*
X189712683Y-151006654D01*
X189620642Y-151155877D01*
X189565493Y-151322303D01*
X189555319Y-151421890D01*
X189555000Y-151428168D01*
X189555000Y-152012500D01*
X177730500Y-152012500D01*
X177730500Y-146000000D01*
X185205001Y-146000000D01*
X185205001Y-146078753D01*
X185205256Y-146084389D01*
X185211408Y-146152104D01*
X185261981Y-146314397D01*
X185349925Y-146459875D01*
X185470124Y-146580074D01*
X185615603Y-146668019D01*
X185777893Y-146718590D01*
X185845620Y-146724745D01*
X185851238Y-146724999D01*
X185854999Y-146724998D01*
X185855000Y-146724998D01*
X185855000Y-146000000D01*
X185205001Y-146000000D01*
X177730500Y-146000000D01*
X177730500Y-145500000D01*
X185205000Y-145500000D01*
X185855000Y-145500000D01*
X185855000Y-144836362D01*
X185874685Y-144769323D01*
X185891319Y-144748681D01*
X185905000Y-144734999D01*
X185905000Y-144200000D01*
X185205001Y-144200000D01*
X185205001Y-144245165D01*
X185205321Y-144251447D01*
X185215143Y-144347605D01*
X185268453Y-144508486D01*
X185357426Y-144652732D01*
X185459691Y-144754997D01*
X185493176Y-144816320D01*
X185488192Y-144886012D01*
X185459691Y-144930359D01*
X185349925Y-145040124D01*
X185261980Y-145185603D01*
X185211409Y-145347893D01*
X185205255Y-145415615D01*
X185205000Y-145421244D01*
X185205000Y-145500000D01*
X177730500Y-145500000D01*
X177730500Y-142550000D01*
X180075001Y-142550000D01*
X180075001Y-142971829D01*
X180075321Y-142978111D01*
X180085493Y-143077695D01*
X180140642Y-143244122D01*
X180232683Y-143393345D01*
X180356654Y-143517316D01*
X180505877Y-143609357D01*
X180672303Y-143664506D01*
X180771890Y-143674680D01*
X180778168Y-143674999D01*
X180949999Y-143674999D01*
X180950000Y-143674998D01*
X180950000Y-142550000D01*
X181450000Y-142550000D01*
X181450000Y-143674999D01*
X181621829Y-143674999D01*
X181628111Y-143674678D01*
X181727695Y-143664506D01*
X181894122Y-143609357D01*
X182043345Y-143517316D01*
X182167316Y-143393345D01*
X182259357Y-143244122D01*
X182314506Y-143077696D01*
X182324680Y-142978109D01*
X182324998Y-142971878D01*
X182874500Y-142971878D01*
X182874501Y-142975008D01*
X182874820Y-142978140D01*
X182874821Y-142978141D01*
X182885000Y-143077796D01*
X182940186Y-143244334D01*
X183032288Y-143393657D01*
X183156342Y-143517711D01*
X183209398Y-143550436D01*
X183305666Y-143609814D01*
X183417016Y-143646712D01*
X183472202Y-143664999D01*
X183571858Y-143675180D01*
X183571859Y-143675180D01*
X183574991Y-143675500D01*
X184425008Y-143675499D01*
X184527797Y-143664999D01*
X184694334Y-143609814D01*
X184843656Y-143517712D01*
X184967712Y-143393656D01*
X185059814Y-143244334D01*
X185114999Y-143077797D01*
X185125500Y-142975009D01*
X185125500Y-142924499D01*
X185145185Y-142857461D01*
X185197989Y-142811706D01*
X185249500Y-142800500D01*
X185338481Y-142800500D01*
X185405520Y-142820185D01*
X185426163Y-142836820D01*
X185469813Y-142880471D01*
X185502002Y-142899930D01*
X185549189Y-142951458D01*
X185561028Y-143020317D01*
X185533759Y-143084646D01*
X185502951Y-143111585D01*
X185477265Y-143127428D01*
X185357426Y-143247267D01*
X185268453Y-143391513D01*
X185215143Y-143552393D01*
X185205319Y-143648554D01*
X185205000Y-143654832D01*
X185205000Y-143700000D01*
X186281000Y-143700000D01*
X186348039Y-143719685D01*
X186393794Y-143772489D01*
X186405000Y-143824000D01*
X186405000Y-144863638D01*
X186385315Y-144930677D01*
X186368681Y-144951319D01*
X186355000Y-144964999D01*
X186355000Y-146724999D01*
X186358753Y-146724999D01*
X186364389Y-146724743D01*
X186432104Y-146718591D01*
X186594397Y-146668018D01*
X186739873Y-146580075D01*
X186841964Y-146477984D01*
X186903287Y-146444499D01*
X186972979Y-146449483D01*
X187017325Y-146477982D01*
X187119815Y-146580472D01*
X187265394Y-146668478D01*
X187364339Y-146699309D01*
X187415130Y-146730014D01*
X187906239Y-147221123D01*
X187907472Y-147222231D01*
X187907482Y-147222240D01*
X187945268Y-147256182D01*
X187945281Y-147256193D01*
X187946500Y-147257288D01*
X187967142Y-147273922D01*
X188011026Y-147305567D01*
X188141903Y-147365338D01*
X188208942Y-147385023D01*
X188208946Y-147385024D01*
X188351362Y-147405500D01*
X189781379Y-147405500D01*
X189846475Y-147423961D01*
X189878633Y-147443796D01*
X189985666Y-147509814D01*
X190097016Y-147546712D01*
X190152202Y-147564999D01*
X190251858Y-147575180D01*
X190251859Y-147575180D01*
X190254991Y-147575500D01*
X192405008Y-147575499D01*
X192507797Y-147564999D01*
X192674334Y-147509814D01*
X192791667Y-147437442D01*
X192813525Y-147423961D01*
X192878621Y-147405500D01*
X195340755Y-147405500D01*
X195407794Y-147425185D01*
X195453549Y-147477989D01*
X195463493Y-147547147D01*
X195434468Y-147610703D01*
X195415069Y-147628763D01*
X195413839Y-147629685D01*
X195408236Y-147633879D01*
X194974061Y-148068054D01*
X194974042Y-148068073D01*
X194972877Y-148069239D01*
X194971786Y-148070452D01*
X194971759Y-148070482D01*
X194937817Y-148108268D01*
X194937787Y-148108302D01*
X194936712Y-148109500D01*
X194935686Y-148110772D01*
X194935670Y-148110792D01*
X194921121Y-148128846D01*
X194921097Y-148128877D01*
X194920078Y-148130142D01*
X194919129Y-148131457D01*
X194919113Y-148131479D01*
X194888431Y-148174028D01*
X194828662Y-148304901D01*
X194809474Y-148370248D01*
X194808977Y-148371942D01*
X194808976Y-148371946D01*
X194808527Y-148375068D01*
X194808524Y-148375084D01*
X194789751Y-148505662D01*
X194788500Y-148514362D01*
X194788500Y-152221638D01*
X194791397Y-152275678D01*
X194791574Y-152277327D01*
X194791576Y-152277348D01*
X194794050Y-152300356D01*
X194794231Y-152302036D01*
X194794496Y-152303675D01*
X194794497Y-152303678D01*
X194802886Y-152355451D01*
X194853166Y-152490253D01*
X194853167Y-152490255D01*
X194853168Y-152490257D01*
X194886653Y-152551580D01*
X194972877Y-152666761D01*
X196170239Y-153864123D01*
X196171472Y-153865231D01*
X196171482Y-153865240D01*
X196209268Y-153899182D01*
X196209281Y-153899193D01*
X196210500Y-153900288D01*
X196231142Y-153916922D01*
X196275026Y-153948567D01*
X196405903Y-154008338D01*
X196472942Y-154028023D01*
X196472946Y-154028024D01*
X196615362Y-154048500D01*
X202145254Y-154048500D01*
X202212293Y-154068185D01*
X202232934Y-154084819D01*
X202647239Y-154499123D01*
X202648472Y-154500231D01*
X202648482Y-154500240D01*
X202686268Y-154534182D01*
X202686281Y-154534193D01*
X202687500Y-154535288D01*
X202708142Y-154551922D01*
X202752026Y-154583567D01*
X202882903Y-154643338D01*
X202949942Y-154663023D01*
X202949946Y-154663024D01*
X203092362Y-154683500D01*
X205517093Y-154683500D01*
X205534740Y-154684762D01*
X205537543Y-154685165D01*
X205680000Y-154705647D01*
X206678061Y-154705647D01*
X206680000Y-154705647D01*
X206743541Y-154701639D01*
X206790115Y-154688808D01*
X206840689Y-154685617D01*
X206980000Y-154705647D01*
X206980002Y-154705647D01*
X208127786Y-154705647D01*
X208130000Y-154705647D01*
X208131369Y-154705549D01*
X208134116Y-154705500D01*
X209695106Y-154705500D01*
X209697161Y-154705647D01*
X209705000Y-154705647D01*
X210703061Y-154705647D01*
X210705000Y-154705647D01*
X210768541Y-154701639D01*
X210815115Y-154688808D01*
X210865689Y-154685617D01*
X211005000Y-154705647D01*
X211692401Y-154705647D01*
X211759440Y-154725332D01*
X211780081Y-154741965D01*
X212299239Y-155261123D01*
X212300472Y-155262231D01*
X212300482Y-155262240D01*
X212338268Y-155296182D01*
X212338281Y-155296193D01*
X212339500Y-155297288D01*
X212360142Y-155313922D01*
X212404026Y-155345567D01*
X212534903Y-155405338D01*
X212601942Y-155425023D01*
X212601946Y-155425024D01*
X212744362Y-155445500D01*
X215687992Y-155445500D01*
X215689638Y-155445500D01*
X215743676Y-155442603D01*
X215770035Y-155439769D01*
X215823453Y-155431113D01*
X215958262Y-155380830D01*
X216019582Y-155347346D01*
X216134759Y-155261124D01*
X216334624Y-155061259D01*
X216348552Y-155043007D01*
X216404870Y-155001655D01*
X216474604Y-154997314D01*
X216486133Y-155000526D01*
X216532395Y-155015856D01*
X216628536Y-155025678D01*
X216634851Y-155025999D01*
X216655000Y-155025999D01*
X216655000Y-154301000D01*
X217155000Y-154301000D01*
X217155000Y-155025999D01*
X217175165Y-155025999D01*
X217181447Y-155025678D01*
X217277605Y-155015856D01*
X217438486Y-154962546D01*
X217582732Y-154873573D01*
X217702573Y-154753732D01*
X217791546Y-154609486D01*
X217844856Y-154448606D01*
X217854680Y-154352445D01*
X217855000Y-154346167D01*
X217855000Y-154301000D01*
X217155000Y-154301000D01*
X216655000Y-154301000D01*
X216655000Y-153925000D01*
X216674685Y-153857961D01*
X216727489Y-153812206D01*
X216779000Y-153801000D01*
X217854998Y-153801000D01*
X217854999Y-153755834D01*
X217854678Y-153749552D01*
X217844856Y-153653394D01*
X217791547Y-153492516D01*
X217781111Y-153475597D01*
X217762671Y-153408204D01*
X217783594Y-153341541D01*
X217837236Y-153296771D01*
X217886650Y-153286500D01*
X218608992Y-153286500D01*
X218610638Y-153286500D01*
X218664678Y-153283603D01*
X218691036Y-153280769D01*
X218744448Y-153272114D01*
X218879257Y-153221832D01*
X218940580Y-153188347D01*
X219055761Y-153102123D01*
X220253123Y-151904761D01*
X220289288Y-151864500D01*
X220305922Y-151843858D01*
X220337567Y-151799974D01*
X220397338Y-151669097D01*
X220417023Y-151602058D01*
X220417024Y-151602054D01*
X220437500Y-151459638D01*
X220437499Y-149784361D01*
X220434602Y-149730321D01*
X220431768Y-149703963D01*
X220423113Y-149650551D01*
X220372831Y-149515742D01*
X220339346Y-149454419D01*
X220253122Y-149339238D01*
X219436761Y-148522877D01*
X219435528Y-148521769D01*
X219435517Y-148521759D01*
X219397731Y-148487817D01*
X219397714Y-148487803D01*
X219396500Y-148486712D01*
X219395026Y-148485524D01*
X219377153Y-148471121D01*
X219377140Y-148471111D01*
X219375858Y-148470078D01*
X219369509Y-148465500D01*
X219331971Y-148438431D01*
X219201098Y-148378662D01*
X219135751Y-148359474D01*
X219135749Y-148359473D01*
X219134058Y-148358977D01*
X219134054Y-148358976D01*
X219130928Y-148358526D01*
X219130915Y-148358524D01*
X218991638Y-148338500D01*
X218436035Y-148338500D01*
X218368996Y-148318815D01*
X218323241Y-148266011D01*
X218313297Y-148196853D01*
X218330496Y-148149404D01*
X218429357Y-147989122D01*
X218484506Y-147822696D01*
X218494680Y-147723109D01*
X218495000Y-147716831D01*
X218495000Y-147300000D01*
X217440470Y-147300000D01*
X217479685Y-147205326D01*
X217500134Y-147050000D01*
X217479685Y-146894674D01*
X217440470Y-146800000D01*
X218494999Y-146800000D01*
X218494999Y-146383170D01*
X218494678Y-146376888D01*
X218484506Y-146277304D01*
X218429357Y-146110877D01*
X218337316Y-145961654D01*
X218213345Y-145837683D01*
X218064122Y-145745642D01*
X217897696Y-145690493D01*
X217798109Y-145680319D01*
X217791832Y-145680000D01*
X217149999Y-145680000D01*
X217149999Y-146509530D01*
X217055326Y-146470315D01*
X216938997Y-146455000D01*
X216861003Y-146455000D01*
X216744674Y-146470315D01*
X216650000Y-146509530D01*
X216650000Y-145680000D01*
X216008171Y-145680000D01*
X216001888Y-145680321D01*
X215902304Y-145690493D01*
X215735877Y-145745642D01*
X215586654Y-145837683D01*
X215462683Y-145961654D01*
X215370642Y-146110877D01*
X215315493Y-146277303D01*
X215305319Y-146376890D01*
X215305000Y-146383168D01*
X215305000Y-146800000D01*
X216359530Y-146800000D01*
X216320315Y-146894674D01*
X216299866Y-147050000D01*
X216320315Y-147205326D01*
X216359530Y-147300000D01*
X215305001Y-147300000D01*
X215305001Y-147716829D01*
X215305321Y-147723111D01*
X215315493Y-147822695D01*
X215370642Y-147989122D01*
X215469504Y-148149404D01*
X215487944Y-148216796D01*
X215467021Y-148283460D01*
X215413379Y-148328229D01*
X215363965Y-148338500D01*
X210277000Y-148338500D01*
X210273706Y-148338854D01*
X210273690Y-148338855D01*
X210172854Y-148349697D01*
X210172851Y-148349697D01*
X210169544Y-148350053D01*
X210166309Y-148350756D01*
X210166295Y-148350759D01*
X210121277Y-148360553D01*
X210121272Y-148360554D01*
X210118033Y-148361259D01*
X210114893Y-148362303D01*
X210114875Y-148362309D01*
X210000717Y-148400305D01*
X209999901Y-148397855D01*
X209954489Y-148411186D01*
X209887451Y-148391495D01*
X209841701Y-148338687D01*
X209830500Y-148287186D01*
X209830500Y-147953341D01*
X209850185Y-147886302D01*
X209902989Y-147840547D01*
X209972147Y-147830603D01*
X210019596Y-147847802D01*
X210160666Y-147934814D01*
X210253587Y-147965605D01*
X210327202Y-147989999D01*
X210426858Y-148000180D01*
X210426859Y-148000180D01*
X210429991Y-148000500D01*
X211830008Y-148000499D01*
X211932797Y-147989999D01*
X212099334Y-147934814D01*
X212248656Y-147842712D01*
X212372712Y-147718656D01*
X212464814Y-147569334D01*
X212519999Y-147402797D01*
X212530500Y-147300009D01*
X212530499Y-145199992D01*
X212519999Y-145097203D01*
X212464814Y-144930666D01*
X212372712Y-144781344D01*
X212372711Y-144781342D01*
X212248657Y-144657288D01*
X212099334Y-144565186D01*
X211932797Y-144510000D01*
X211833141Y-144499819D01*
X211833122Y-144499818D01*
X211830009Y-144499500D01*
X211826860Y-144499500D01*
X210433140Y-144499500D01*
X210433120Y-144499500D01*
X210429992Y-144499501D01*
X210426860Y-144499820D01*
X210426858Y-144499821D01*
X210327203Y-144510000D01*
X210160665Y-144565186D01*
X210011342Y-144657288D01*
X209887288Y-144781342D01*
X209789061Y-144940596D01*
X209737113Y-144987321D01*
X209683522Y-144999500D01*
X208276478Y-144999500D01*
X208209439Y-144979815D01*
X208170939Y-144940596D01*
X208072711Y-144781342D01*
X207948657Y-144657288D01*
X207799334Y-144565186D01*
X207632797Y-144510000D01*
X207533141Y-144499819D01*
X207533122Y-144499818D01*
X207530009Y-144499500D01*
X207526860Y-144499500D01*
X207459807Y-144499500D01*
X207392768Y-144479815D01*
X207347013Y-144427011D01*
X207337069Y-144357853D01*
X207366094Y-144294297D01*
X207372126Y-144287819D01*
X207459945Y-144200000D01*
X208109513Y-143550431D01*
X208126162Y-143537094D01*
X208127936Y-143535204D01*
X208127940Y-143535202D01*
X208175897Y-143484131D01*
X208178515Y-143481429D01*
X208198911Y-143461035D01*
X208201610Y-143457554D01*
X208209184Y-143448685D01*
X208240448Y-143415393D01*
X208250675Y-143396787D01*
X208261348Y-143380539D01*
X208274362Y-143363764D01*
X208292499Y-143321849D01*
X208297617Y-143311401D01*
X208319627Y-143271368D01*
X208324905Y-143250807D01*
X208331207Y-143232403D01*
X208339636Y-143212926D01*
X208346778Y-143167824D01*
X208349144Y-143156401D01*
X208360500Y-143112177D01*
X208360500Y-143090954D01*
X208362027Y-143071554D01*
X208365347Y-143050595D01*
X208361050Y-143005139D01*
X208360500Y-142993470D01*
X208360500Y-138720807D01*
X208380185Y-138653768D01*
X208396814Y-138633131D01*
X208462181Y-138567764D01*
X220345787Y-138567764D01*
X220375413Y-138837016D01*
X220375414Y-138837018D01*
X220443928Y-139099088D01*
X220548172Y-139344395D01*
X220549871Y-139348392D01*
X220690982Y-139579611D01*
X220852075Y-139773184D01*
X220864255Y-139787820D01*
X221065998Y-139968582D01*
X221291910Y-140118044D01*
X221398211Y-140167876D01*
X221537177Y-140233021D01*
X221796562Y-140311058D01*
X221796569Y-140311060D01*
X222064561Y-140350500D01*
X222064564Y-140350500D01*
X222265369Y-140350500D01*
X222267631Y-140350500D01*
X222470156Y-140335677D01*
X222734553Y-140276780D01*
X222987558Y-140180014D01*
X223223777Y-140047441D01*
X223438177Y-139881888D01*
X223626186Y-139686881D01*
X223783799Y-139466579D01*
X223907656Y-139225675D01*
X223995118Y-138969305D01*
X224044319Y-138702933D01*
X224054212Y-138432235D01*
X224024586Y-138162982D01*
X223956072Y-137900912D01*
X223850130Y-137651610D01*
X223709018Y-137420390D01*
X223709017Y-137420388D01*
X223535746Y-137212181D01*
X223430759Y-137118112D01*
X223334002Y-137031418D01*
X223108090Y-136881956D01*
X223108086Y-136881954D01*
X222862822Y-136766978D01*
X222603437Y-136688941D01*
X222603431Y-136688940D01*
X222335439Y-136649500D01*
X222132369Y-136649500D01*
X222130120Y-136649664D01*
X222130109Y-136649665D01*
X221929843Y-136664322D01*
X221665449Y-136723219D01*
X221412441Y-136819986D01*
X221176223Y-136952559D01*
X220961825Y-137118109D01*
X220773813Y-137313120D01*
X220616201Y-137533420D01*
X220492342Y-137774329D01*
X220404881Y-138030695D01*
X220355680Y-138297066D01*
X220345787Y-138567764D01*
X208462181Y-138567764D01*
X208753126Y-138276818D01*
X208814450Y-138243334D01*
X208840808Y-138240500D01*
X211104495Y-138240500D01*
X211125704Y-138242841D01*
X211128294Y-138242759D01*
X211128296Y-138242760D01*
X211198262Y-138240560D01*
X211202157Y-138240500D01*
X211227025Y-138240500D01*
X211230925Y-138240500D01*
X211235294Y-138239947D01*
X211246939Y-138239030D01*
X211292569Y-138237597D01*
X211312949Y-138231675D01*
X211331989Y-138227732D01*
X211353058Y-138225071D01*
X211395520Y-138208258D01*
X211406557Y-138204480D01*
X211450398Y-138191744D01*
X211468670Y-138180936D01*
X211486136Y-138172380D01*
X211505871Y-138164568D01*
X211542816Y-138137725D01*
X211552548Y-138131332D01*
X211591865Y-138108081D01*
X211606874Y-138093071D01*
X211621663Y-138080439D01*
X211638837Y-138067963D01*
X211667946Y-138032774D01*
X211675790Y-138024154D01*
X216334513Y-133365431D01*
X216351162Y-133352094D01*
X216352936Y-133350204D01*
X216352940Y-133350202D01*
X216400897Y-133299131D01*
X216403515Y-133296429D01*
X216423911Y-133276035D01*
X216426610Y-133272554D01*
X216434184Y-133263685D01*
X216465448Y-133230393D01*
X216475675Y-133211787D01*
X216486348Y-133195539D01*
X216499362Y-133178764D01*
X216517495Y-133136857D01*
X216522625Y-133126387D01*
X216544627Y-133086368D01*
X216549903Y-133065813D01*
X216556206Y-133047402D01*
X216564635Y-133027927D01*
X216571777Y-132982825D01*
X216574146Y-132971395D01*
X216585500Y-132927178D01*
X216585499Y-132905957D01*
X216587025Y-132886556D01*
X216590346Y-132865595D01*
X216586047Y-132820124D01*
X216585500Y-132808499D01*
X216585500Y-131945785D01*
X216605185Y-131878746D01*
X216644223Y-131840359D01*
X216661562Y-131829624D01*
X216825981Y-131679736D01*
X216960058Y-131502189D01*
X217059229Y-131303028D01*
X217120115Y-131089036D01*
X217140643Y-130867500D01*
X217120115Y-130645964D01*
X217092811Y-130549999D01*
X217059230Y-130431973D01*
X216960058Y-130232811D01*
X216825980Y-130055262D01*
X216661564Y-129905377D01*
X216644220Y-129894638D01*
X216597586Y-129842609D01*
X216585500Y-129789212D01*
X216585500Y-129445786D01*
X216605185Y-129378747D01*
X216644223Y-129340359D01*
X216661562Y-129329624D01*
X216825981Y-129179736D01*
X216960058Y-129002189D01*
X217059229Y-128803028D01*
X217120115Y-128589036D01*
X217140643Y-128367500D01*
X217120115Y-128145964D01*
X217087395Y-128030966D01*
X217059230Y-127931973D01*
X216960058Y-127732811D01*
X216825980Y-127555262D01*
X216661562Y-127405375D01*
X216472403Y-127288254D01*
X216472401Y-127288253D01*
X216329411Y-127232858D01*
X216274010Y-127190286D01*
X216250420Y-127124519D01*
X216266131Y-127056439D01*
X216316155Y-127007660D01*
X216329413Y-127001605D01*
X216472178Y-126946298D01*
X216588326Y-126874380D01*
X216588326Y-126874379D01*
X216023232Y-126309284D01*
X216069138Y-126302365D01*
X216191357Y-126243507D01*
X216290798Y-126151240D01*
X216358625Y-126033760D01*
X216376499Y-125955445D01*
X216943861Y-126522808D01*
X216959632Y-126501924D01*
X217058761Y-126302847D01*
X217119621Y-126088945D01*
X217140140Y-125867500D01*
X217119621Y-125646054D01*
X217058762Y-125432154D01*
X216959630Y-125233072D01*
X216943860Y-125212190D01*
X216379449Y-125776601D01*
X216378673Y-125766235D01*
X216329113Y-125639959D01*
X216244535Y-125533901D01*
X216132453Y-125457484D01*
X216024700Y-125424247D01*
X216588327Y-124860619D01*
X216472179Y-124788702D01*
X216264801Y-124708364D01*
X216046194Y-124667500D01*
X215823806Y-124667500D01*
X215605198Y-124708364D01*
X215397821Y-124788702D01*
X215281671Y-124860619D01*
X215846768Y-125425715D01*
X215800862Y-125432635D01*
X215678643Y-125491493D01*
X215579202Y-125583760D01*
X215511375Y-125701240D01*
X215493500Y-125779552D01*
X214926138Y-125212190D01*
X214926137Y-125212191D01*
X214910368Y-125233074D01*
X214811237Y-125432154D01*
X214750378Y-125646054D01*
X214729859Y-125867500D01*
X214750378Y-126088945D01*
X214811238Y-126302847D01*
X214910367Y-126501925D01*
X214926137Y-126522808D01*
X214926138Y-126522808D01*
X215490550Y-125958396D01*
X215491327Y-125968765D01*
X215540887Y-126095041D01*
X215625465Y-126201099D01*
X215737547Y-126277516D01*
X215845299Y-126310753D01*
X215281672Y-126874379D01*
X215281672Y-126874381D01*
X215397816Y-126946295D01*
X215540587Y-127001605D01*
X215595988Y-127044178D01*
X215619579Y-127109945D01*
X215603868Y-127178025D01*
X215553844Y-127226804D01*
X215540587Y-127232858D01*
X215397600Y-127288251D01*
X215208437Y-127405375D01*
X215044019Y-127555262D01*
X214909941Y-127732811D01*
X214810769Y-127931973D01*
X214749885Y-128145962D01*
X214729357Y-128367500D01*
X214749885Y-128589037D01*
X214810769Y-128803026D01*
X214909941Y-129002188D01*
X215044019Y-129179737D01*
X215208435Y-129329622D01*
X215208437Y-129329623D01*
X215208438Y-129329624D01*
X215225775Y-129340358D01*
X215272411Y-129392383D01*
X215284500Y-129445786D01*
X215284500Y-129789212D01*
X215264815Y-129856251D01*
X215225780Y-129894638D01*
X215208435Y-129905377D01*
X215044019Y-130055262D01*
X214909941Y-130232811D01*
X214810769Y-130431973D01*
X214749885Y-130645962D01*
X214729357Y-130867500D01*
X214749885Y-131089037D01*
X214810769Y-131303026D01*
X214909941Y-131502188D01*
X215044019Y-131679737D01*
X215208435Y-131829622D01*
X215208437Y-131829623D01*
X215208438Y-131829624D01*
X215225775Y-131840358D01*
X215272411Y-131892383D01*
X215284500Y-131945786D01*
X215284500Y-132524192D01*
X215264815Y-132591231D01*
X215248181Y-132611873D01*
X210956873Y-136903181D01*
X210895550Y-136936666D01*
X210869192Y-136939500D01*
X209034452Y-136939500D01*
X208967413Y-136919815D01*
X208921658Y-136867011D01*
X208911714Y-136797853D01*
X208940739Y-136734297D01*
X208946751Y-136727838D01*
X209061293Y-136613296D01*
X209077386Y-136600405D01*
X209079374Y-136598287D01*
X209079377Y-136598286D01*
X209125449Y-136549223D01*
X209128034Y-136546555D01*
X209147620Y-136526971D01*
X209150085Y-136523792D01*
X209157667Y-136514916D01*
X209187562Y-136483082D01*
X209197217Y-136465518D01*
X209207894Y-136449264D01*
X209220173Y-136433436D01*
X209237518Y-136393352D01*
X209242660Y-136382856D01*
X209263697Y-136344592D01*
X209268679Y-136325184D01*
X209274981Y-136306780D01*
X209282937Y-136288396D01*
X209289769Y-136245252D01*
X209292133Y-136233838D01*
X209303000Y-136191519D01*
X209303000Y-136191517D01*
X209306265Y-136178802D01*
X209342004Y-136118765D01*
X209391774Y-136090566D01*
X209456082Y-136071882D01*
X209525398Y-136051744D01*
X209666865Y-135968081D01*
X209783081Y-135851865D01*
X209866744Y-135710398D01*
X209912598Y-135552569D01*
X209915500Y-135515694D01*
X209915500Y-135084306D01*
X209912598Y-135047431D01*
X209866744Y-134889602D01*
X209783081Y-134748135D01*
X209666865Y-134631919D01*
X209583694Y-134582732D01*
X209525397Y-134548255D01*
X209367572Y-134502402D01*
X209333128Y-134499691D01*
X209333114Y-134499690D01*
X209330694Y-134499500D01*
X208024306Y-134499500D01*
X208021886Y-134499690D01*
X208021871Y-134499691D01*
X207987427Y-134502402D01*
X207829602Y-134548255D01*
X207771306Y-134582732D01*
X207708185Y-134600000D01*
X207052500Y-134600000D01*
X207052500Y-135150000D01*
X207315500Y-135150000D01*
X207382539Y-135169685D01*
X207428294Y-135222489D01*
X207439500Y-135273999D01*
X207439500Y-135515694D01*
X207439690Y-135518114D01*
X207439691Y-135518128D01*
X207442402Y-135552572D01*
X207488255Y-135710397D01*
X207571919Y-135851865D01*
X207688135Y-135968081D01*
X207707124Y-135979311D01*
X207754808Y-136030380D01*
X207767311Y-136099122D01*
X207740665Y-136163711D01*
X207731684Y-136173724D01*
X207478214Y-136427194D01*
X207416891Y-136460679D01*
X207347199Y-136455695D01*
X207302852Y-136427194D01*
X207250186Y-136374528D01*
X207138103Y-136306772D01*
X207104606Y-136286522D01*
X206942196Y-136235914D01*
X206942193Y-136235913D01*
X206874424Y-136229755D01*
X206874420Y-136229754D01*
X206871616Y-136229500D01*
X206208384Y-136229500D01*
X206205580Y-136229754D01*
X206205575Y-136229755D01*
X206137805Y-136235913D01*
X205977218Y-136285953D01*
X205907358Y-136287103D01*
X205847966Y-136250302D01*
X205823705Y-136199498D01*
X205822380Y-136199993D01*
X205818113Y-136188555D01*
X205818113Y-136188550D01*
X205767832Y-136053742D01*
X205734348Y-135992421D01*
X205648124Y-135877240D01*
X204979818Y-135208934D01*
X204946334Y-135147612D01*
X204943500Y-135121254D01*
X204943500Y-134600000D01*
X205567704Y-134600000D01*
X205567900Y-134602488D01*
X205613719Y-134760200D01*
X205697317Y-134901557D01*
X205813442Y-135017682D01*
X205954802Y-135101282D01*
X206112506Y-135147099D01*
X206146923Y-135149808D01*
X206151803Y-135150000D01*
X206552500Y-135150000D01*
X206552500Y-134600000D01*
X205567704Y-134600000D01*
X204943500Y-134600000D01*
X204943500Y-134099999D01*
X205567704Y-134099999D01*
X205567705Y-134100000D01*
X206552500Y-134100000D01*
X206552500Y-133550000D01*
X206151803Y-133550000D01*
X206146923Y-133550191D01*
X206112506Y-133552900D01*
X205954802Y-133598717D01*
X205813442Y-133682317D01*
X205697317Y-133798442D01*
X205613719Y-133939799D01*
X205567900Y-134097511D01*
X205567704Y-134099999D01*
X204943500Y-134099999D01*
X204943500Y-133798442D01*
X204943499Y-132454191D01*
X204963184Y-132387156D01*
X205015987Y-132341401D01*
X205085146Y-132331457D01*
X205131647Y-132348077D01*
X205165394Y-132368478D01*
X205327804Y-132419086D01*
X205398384Y-132425500D01*
X205401203Y-132425500D01*
X205908797Y-132425500D01*
X205911616Y-132425500D01*
X205982196Y-132419086D01*
X206144606Y-132368478D01*
X206290185Y-132280472D01*
X206333837Y-132236820D01*
X206395160Y-132203334D01*
X206421519Y-132200500D01*
X207845500Y-132200500D01*
X207912539Y-132220185D01*
X207958294Y-132272989D01*
X207969500Y-132324500D01*
X207969500Y-132514509D01*
X207949815Y-132581548D01*
X207897011Y-132627303D01*
X207880097Y-132633585D01*
X207829601Y-132648256D01*
X207688134Y-132731919D01*
X207571919Y-132848134D01*
X207488255Y-132989602D01*
X207442402Y-133147427D01*
X207439691Y-133181871D01*
X207439690Y-133181886D01*
X207439500Y-133184306D01*
X207439500Y-133186750D01*
X207439500Y-133186751D01*
X207439500Y-133426000D01*
X207419815Y-133493039D01*
X207367011Y-133538794D01*
X207315500Y-133550000D01*
X207052500Y-133550000D01*
X207052500Y-134100000D01*
X207708185Y-134100000D01*
X207771306Y-134117268D01*
X207829602Y-134151744D01*
X207987427Y-134197597D01*
X207987431Y-134197598D01*
X208024306Y-134200500D01*
X208026751Y-134200500D01*
X209328249Y-134200500D01*
X209330694Y-134200500D01*
X209367569Y-134197598D01*
X209525398Y-134151744D01*
X209666865Y-134068081D01*
X209783081Y-133951865D01*
X209866744Y-133810398D01*
X209912598Y-133652569D01*
X209915500Y-133615694D01*
X209915500Y-133184306D01*
X209912598Y-133147431D01*
X209866744Y-132989602D01*
X209783081Y-132848135D01*
X209666865Y-132731919D01*
X209608952Y-132697669D01*
X209531378Y-132651792D01*
X209483695Y-132600722D01*
X209470500Y-132545060D01*
X209470500Y-131892228D01*
X209490185Y-131825189D01*
X209506814Y-131804552D01*
X212415638Y-128895727D01*
X212429256Y-128883957D01*
X212448530Y-128869610D01*
X212480372Y-128831661D01*
X212487686Y-128823681D01*
X212488267Y-128823099D01*
X212491590Y-128819777D01*
X212510832Y-128795438D01*
X212513054Y-128792711D01*
X212561302Y-128735214D01*
X212561302Y-128735212D01*
X212562117Y-128734242D01*
X212572566Y-128717840D01*
X212573105Y-128716682D01*
X212573110Y-128716677D01*
X212604832Y-128648647D01*
X212606348Y-128645516D01*
X212640040Y-128578433D01*
X212640040Y-128578429D01*
X212640610Y-128577296D01*
X212646999Y-128558917D01*
X212647256Y-128557673D01*
X212662431Y-128484171D01*
X212663186Y-128480767D01*
X212680500Y-128407721D01*
X212680500Y-128407717D01*
X212680790Y-128406494D01*
X212682769Y-128387123D01*
X212682732Y-128385859D01*
X212682733Y-128385856D01*
X212680552Y-128310888D01*
X212680500Y-128307283D01*
X212680500Y-124613705D01*
X212681809Y-124595735D01*
X212683304Y-124585528D01*
X212685289Y-124571977D01*
X212680971Y-124522633D01*
X212680500Y-124511827D01*
X212680500Y-124509901D01*
X212680500Y-124506291D01*
X212676898Y-124475478D01*
X212676534Y-124471915D01*
X212669888Y-124395942D01*
X212665674Y-124376935D01*
X212665241Y-124375745D01*
X212639571Y-124305217D01*
X212638424Y-124301917D01*
X212614814Y-124230665D01*
X212614812Y-124230662D01*
X212614415Y-124229463D01*
X212605929Y-124211936D01*
X212605237Y-124210884D01*
X212605237Y-124210883D01*
X212563994Y-124148176D01*
X212562099Y-124145201D01*
X212522711Y-124081344D01*
X212522047Y-124080267D01*
X212509748Y-124065170D01*
X212454274Y-124012833D01*
X212451687Y-124010320D01*
X212105728Y-123664360D01*
X212093946Y-123650727D01*
X212079609Y-123631469D01*
X212041666Y-123599631D01*
X212033691Y-123592323D01*
X212032329Y-123590961D01*
X212029777Y-123588409D01*
X212005444Y-123569169D01*
X212002647Y-123566890D01*
X211944251Y-123517890D01*
X211927821Y-123507422D01*
X211858691Y-123475186D01*
X211855447Y-123473615D01*
X211787306Y-123439394D01*
X211768903Y-123432997D01*
X211694211Y-123417574D01*
X211690692Y-123416794D01*
X211616490Y-123399208D01*
X211597121Y-123397229D01*
X211520869Y-123399448D01*
X211517263Y-123399500D01*
X211379347Y-123399500D01*
X211312308Y-123379815D01*
X211280393Y-123350227D01*
X211270983Y-123337766D01*
X211270981Y-123337764D01*
X211165531Y-123241633D01*
X211129253Y-123181926D01*
X211131013Y-123112079D01*
X211165531Y-123058366D01*
X211270981Y-122962236D01*
X211405058Y-122784689D01*
X211504229Y-122585528D01*
X211508782Y-122569528D01*
X211548220Y-122430914D01*
X211565115Y-122371536D01*
X211585643Y-122150000D01*
X211565115Y-121928464D01*
X211509051Y-121731418D01*
X211504230Y-121714473D01*
X211405058Y-121515311D01*
X211270980Y-121337762D01*
X211106562Y-121187875D01*
X210917404Y-121070754D01*
X210856174Y-121047033D01*
X210709940Y-120990382D01*
X210491243Y-120949500D01*
X210268757Y-120949500D01*
X210050059Y-120990382D01*
X210050060Y-120990382D01*
X209842595Y-121070754D01*
X209653437Y-121187875D01*
X209489019Y-121337763D01*
X209479607Y-121350227D01*
X209423497Y-121391863D01*
X209380653Y-121399500D01*
X206879347Y-121399500D01*
X206812308Y-121379815D01*
X206780393Y-121350227D01*
X206770980Y-121337763D01*
X206606562Y-121187875D01*
X206417404Y-121070754D01*
X206356174Y-121047033D01*
X206209940Y-120990382D01*
X205991243Y-120949500D01*
X205768757Y-120949500D01*
X205550059Y-120990382D01*
X205550060Y-120990382D01*
X205342595Y-121070754D01*
X205153437Y-121187875D01*
X204989019Y-121337762D01*
X204854941Y-121515311D01*
X204755769Y-121714473D01*
X204694885Y-121928462D01*
X204674357Y-122150000D01*
X204681221Y-122224077D01*
X204667806Y-122292647D01*
X204645431Y-122323199D01*
X203209530Y-123759100D01*
X203148207Y-123792585D01*
X203078515Y-123787601D01*
X203022582Y-123745729D01*
X202998165Y-123680265D01*
X202998358Y-123660195D01*
X202999084Y-123652200D01*
X202999086Y-123652196D01*
X203005500Y-123581616D01*
X203005500Y-123068384D01*
X202999086Y-122997804D01*
X202948478Y-122835394D01*
X202860472Y-122689815D01*
X202860471Y-122689813D01*
X202740186Y-122569528D01*
X202652180Y-122516326D01*
X202594606Y-122481522D01*
X202432196Y-122430914D01*
X202432193Y-122430913D01*
X202364424Y-122424755D01*
X202364420Y-122424754D01*
X202361616Y-122424500D01*
X201698384Y-122424500D01*
X201695580Y-122424754D01*
X201695575Y-122424755D01*
X201627806Y-122430913D01*
X201546599Y-122456217D01*
X201465394Y-122481522D01*
X201465392Y-122481522D01*
X201465392Y-122481523D01*
X201341172Y-122556617D01*
X201277022Y-122574500D01*
X200982978Y-122574500D01*
X200918828Y-122556617D01*
X200879848Y-122533053D01*
X200794606Y-122481522D01*
X200632196Y-122430914D01*
X200632193Y-122430913D01*
X200564424Y-122424755D01*
X200564420Y-122424754D01*
X200561616Y-122424500D01*
X199898384Y-122424500D01*
X199895580Y-122424754D01*
X199895575Y-122424755D01*
X199827806Y-122430913D01*
X199746599Y-122456217D01*
X199665394Y-122481522D01*
X199665392Y-122481522D01*
X199665392Y-122481523D01*
X199519813Y-122569528D01*
X199399528Y-122689813D01*
X199316687Y-122826849D01*
X199298251Y-122850380D01*
X196755451Y-125393181D01*
X196694128Y-125426666D01*
X196667770Y-125429500D01*
X193453706Y-125429500D01*
X193435736Y-125428191D01*
X193421853Y-125426157D01*
X193411977Y-125424711D01*
X193411976Y-125424711D01*
X193362634Y-125429028D01*
X193351827Y-125429500D01*
X193346291Y-125429500D01*
X193342717Y-125429917D01*
X193342711Y-125429918D01*
X193315487Y-125433099D01*
X193311906Y-125433465D01*
X193235952Y-125440111D01*
X193216926Y-125444329D01*
X193145245Y-125470417D01*
X193141842Y-125471600D01*
X193069474Y-125495580D01*
X193051927Y-125504076D01*
X192988236Y-125545965D01*
X192985196Y-125547902D01*
X192920280Y-125587943D01*
X192905165Y-125600255D01*
X192852848Y-125655708D01*
X192850336Y-125658294D01*
X192294358Y-126214272D01*
X192280727Y-126226053D01*
X192261468Y-126240391D01*
X192229635Y-126278328D01*
X192222338Y-126286292D01*
X192220972Y-126287657D01*
X192220950Y-126287681D01*
X192218409Y-126290223D01*
X192216173Y-126293050D01*
X192216171Y-126293053D01*
X192199176Y-126314546D01*
X192196902Y-126317337D01*
X192147894Y-126375744D01*
X192137418Y-126392187D01*
X192105192Y-126461294D01*
X192103622Y-126464536D01*
X192069393Y-126532693D01*
X192062060Y-126553790D01*
X192060933Y-126556207D01*
X192014762Y-126608648D01*
X191987555Y-126621511D01*
X191920242Y-126643817D01*
X191840666Y-126670186D01*
X191840664Y-126670186D01*
X191840664Y-126670187D01*
X191691342Y-126762288D01*
X191567288Y-126886342D01*
X191475186Y-127035665D01*
X191424209Y-127189504D01*
X191384436Y-127246949D01*
X191319920Y-127273772D01*
X191306503Y-127274500D01*
X190435311Y-127274500D01*
X190429117Y-127275390D01*
X190425475Y-127275914D01*
X190356321Y-127265969D01*
X190222457Y-127204834D01*
X190080000Y-127184353D01*
X189615763Y-127184353D01*
X189544236Y-127184353D01*
X189115764Y-127184353D01*
X189044237Y-127184353D01*
X188580000Y-127184353D01*
X188577792Y-127184510D01*
X188577789Y-127184511D01*
X188508037Y-127189500D01*
X188369946Y-127230046D01*
X188324832Y-127259039D01*
X188257792Y-127278723D01*
X188240150Y-127277461D01*
X188219553Y-127274500D01*
X188219550Y-127274500D01*
X186241362Y-127274500D01*
X186239726Y-127274587D01*
X186239714Y-127274588D01*
X186188995Y-127277307D01*
X186188983Y-127277307D01*
X186187322Y-127277397D01*
X186185675Y-127277574D01*
X186185651Y-127277576D01*
X186162643Y-127280050D01*
X186162625Y-127280052D01*
X186160964Y-127280231D01*
X186159329Y-127280495D01*
X186159321Y-127280497D01*
X186107548Y-127288886D01*
X185972746Y-127339166D01*
X185911419Y-127372653D01*
X185796236Y-127458879D01*
X183570061Y-129685054D01*
X183570042Y-129685073D01*
X183568877Y-129686239D01*
X183567786Y-129687452D01*
X183567759Y-129687482D01*
X183533817Y-129725268D01*
X183533787Y-129725302D01*
X183532712Y-129726500D01*
X183531686Y-129727772D01*
X183531670Y-129727792D01*
X183517121Y-129745846D01*
X183517097Y-129745877D01*
X183516078Y-129747142D01*
X183515129Y-129748457D01*
X183515113Y-129748479D01*
X183484431Y-129791028D01*
X183424662Y-129921901D01*
X183405474Y-129987248D01*
X183404977Y-129988942D01*
X183404976Y-129988946D01*
X183404527Y-129992068D01*
X183404524Y-129992084D01*
X183395882Y-130052196D01*
X183384500Y-130131362D01*
X183384500Y-134638646D01*
X183387397Y-134692685D01*
X183387574Y-134694334D01*
X183387576Y-134694355D01*
X183390052Y-134717380D01*
X183390230Y-134719034D01*
X183394945Y-134748134D01*
X183398885Y-134772450D01*
X183449165Y-134907252D01*
X183449166Y-134907254D01*
X183449167Y-134907256D01*
X183482652Y-134968579D01*
X183568876Y-135083760D01*
X183906239Y-135421123D01*
X183907472Y-135422231D01*
X183907482Y-135422240D01*
X183945268Y-135456182D01*
X183945281Y-135456193D01*
X183946500Y-135457288D01*
X183967142Y-135473922D01*
X184011026Y-135505567D01*
X184141903Y-135565338D01*
X184161811Y-135571183D01*
X184220588Y-135608957D01*
X184249613Y-135672513D01*
X184239669Y-135741672D01*
X184204643Y-135786742D01*
X183831153Y-136087475D01*
X183831140Y-136087486D01*
X183829203Y-136089046D01*
X183827400Y-136090753D01*
X183827385Y-136090767D01*
X183772040Y-136143194D01*
X183772024Y-136143210D01*
X183770233Y-136144907D01*
X183768577Y-136146749D01*
X183768571Y-136146756D01*
X183745360Y-136172586D01*
X183745348Y-136172599D01*
X183743686Y-136174450D01*
X183742172Y-136176433D01*
X183742171Y-136176436D01*
X183694432Y-136239021D01*
X183634662Y-136369896D01*
X183616005Y-136433435D01*
X183614977Y-136436937D01*
X183614976Y-136436941D01*
X183614527Y-136440063D01*
X183614524Y-136440079D01*
X183594499Y-136579357D01*
X183594500Y-137420388D01*
X183594500Y-138048638D01*
X183594587Y-138050274D01*
X183594588Y-138050285D01*
X183596512Y-138086172D01*
X183597397Y-138102678D01*
X183597574Y-138104327D01*
X183597576Y-138104348D01*
X183600050Y-138127356D01*
X183600231Y-138129036D01*
X183600496Y-138130675D01*
X183600497Y-138130678D01*
X183608886Y-138182451D01*
X183659166Y-138317253D01*
X183659167Y-138317255D01*
X183659168Y-138317257D01*
X183692653Y-138378580D01*
X183778877Y-138493761D01*
X184436348Y-139151232D01*
X184460334Y-139172801D01*
X184474984Y-139185976D01*
X184474994Y-139185985D01*
X184476180Y-139187051D01*
X184496599Y-139203542D01*
X184540005Y-139234949D01*
X184670755Y-139294999D01*
X184737752Y-139314827D01*
X184737754Y-139314827D01*
X184740677Y-139315692D01*
X184746660Y-139316127D01*
X184880125Y-139335608D01*
X188990507Y-139344395D01*
X189057504Y-139364223D01*
X189103146Y-139417125D01*
X189112942Y-139486304D01*
X189083781Y-139549798D01*
X189049664Y-139577230D01*
X189027916Y-139589104D01*
X189023181Y-139591333D01*
X188906236Y-139678878D01*
X187543584Y-141041530D01*
X187482261Y-141075015D01*
X187467127Y-141077340D01*
X187427806Y-141080913D01*
X187346599Y-141106217D01*
X187265394Y-141131522D01*
X187265392Y-141131522D01*
X187265392Y-141131523D01*
X187119813Y-141219528D01*
X187017681Y-141321661D01*
X186956358Y-141355146D01*
X186886666Y-141350162D01*
X186842319Y-141321661D01*
X186740186Y-141219528D01*
X186652180Y-141166326D01*
X186594606Y-141131522D01*
X186437873Y-141082683D01*
X186432193Y-141080913D01*
X186364424Y-141074755D01*
X186364420Y-141074754D01*
X186361616Y-141074500D01*
X185848384Y-141074500D01*
X185845580Y-141074754D01*
X185845575Y-141074755D01*
X185777806Y-141080913D01*
X185696598Y-141106217D01*
X185615394Y-141131522D01*
X185615392Y-141131522D01*
X185615392Y-141131523D01*
X185469813Y-141219528D01*
X185426163Y-141263180D01*
X185364840Y-141296666D01*
X185338481Y-141299500D01*
X185094378Y-141299500D01*
X185027339Y-141279815D01*
X184988839Y-141240596D01*
X184967711Y-141206342D01*
X184843657Y-141082288D01*
X184694334Y-140990186D01*
X184527797Y-140935000D01*
X184428141Y-140924819D01*
X184428122Y-140924818D01*
X184425009Y-140924500D01*
X184421860Y-140924500D01*
X183578141Y-140924500D01*
X183578121Y-140924500D01*
X183574992Y-140924501D01*
X183571860Y-140924820D01*
X183571858Y-140924821D01*
X183472203Y-140935000D01*
X183305665Y-140990186D01*
X183156342Y-141082288D01*
X183032288Y-141206342D01*
X182940186Y-141355665D01*
X182885000Y-141522202D01*
X182874819Y-141621858D01*
X182874817Y-141621878D01*
X182874500Y-141624991D01*
X182874500Y-141628138D01*
X182874500Y-141628139D01*
X182874500Y-142971859D01*
X182874500Y-142971878D01*
X182324998Y-142971878D01*
X182325000Y-142971831D01*
X182325000Y-142550000D01*
X181450000Y-142550000D01*
X180950000Y-142550000D01*
X180075001Y-142550000D01*
X177730500Y-142550000D01*
X177730500Y-142050000D01*
X180075000Y-142050000D01*
X180950000Y-142050000D01*
X180950000Y-140925000D01*
X181450000Y-140925000D01*
X181450000Y-142050000D01*
X182324999Y-142050000D01*
X182324999Y-141628170D01*
X182324678Y-141621888D01*
X182314506Y-141522304D01*
X182259357Y-141355877D01*
X182167316Y-141206654D01*
X182043345Y-141082683D01*
X181894122Y-140990642D01*
X181727696Y-140935493D01*
X181628109Y-140925319D01*
X181621832Y-140925000D01*
X181450000Y-140925000D01*
X180950000Y-140925000D01*
X180778171Y-140925000D01*
X180771888Y-140925321D01*
X180672304Y-140935493D01*
X180505877Y-140990642D01*
X180356654Y-141082683D01*
X180232683Y-141206654D01*
X180140642Y-141355877D01*
X180085493Y-141522303D01*
X180075319Y-141621890D01*
X180075000Y-141628168D01*
X180075000Y-142050000D01*
X177730500Y-142050000D01*
X177730500Y-123267764D01*
X179345787Y-123267764D01*
X179375413Y-123537016D01*
X179409998Y-123669304D01*
X179443928Y-123799088D01*
X179534760Y-124012833D01*
X179549871Y-124048392D01*
X179690982Y-124279611D01*
X179852510Y-124473707D01*
X179864255Y-124487820D01*
X180065998Y-124668582D01*
X180291910Y-124818044D01*
X180382731Y-124860619D01*
X180537177Y-124933021D01*
X180796562Y-125011058D01*
X180796569Y-125011060D01*
X181064561Y-125050500D01*
X181064564Y-125050500D01*
X181265369Y-125050500D01*
X181267631Y-125050500D01*
X181470156Y-125035677D01*
X181734553Y-124976780D01*
X181987558Y-124880014D01*
X182223777Y-124747441D01*
X182438177Y-124581888D01*
X182626186Y-124386881D01*
X182783799Y-124166579D01*
X182907656Y-123925675D01*
X182995118Y-123669305D01*
X183044319Y-123402933D01*
X183054212Y-123132235D01*
X183024586Y-122862982D01*
X182956072Y-122600912D01*
X182850130Y-122351610D01*
X182777999Y-122233420D01*
X182709017Y-122120388D01*
X182535746Y-121912181D01*
X182430759Y-121818112D01*
X182334002Y-121731418D01*
X182108090Y-121581956D01*
X182108086Y-121581954D01*
X181862822Y-121466978D01*
X181603437Y-121388941D01*
X181603431Y-121388940D01*
X181335439Y-121349500D01*
X181132369Y-121349500D01*
X181130120Y-121349664D01*
X181130109Y-121349665D01*
X180929843Y-121364322D01*
X180665449Y-121423219D01*
X180412441Y-121519986D01*
X180176223Y-121652559D01*
X179961825Y-121818109D01*
X179773813Y-122013120D01*
X179616201Y-122233420D01*
X179492342Y-122474329D01*
X179404881Y-122730695D01*
X179355680Y-122997066D01*
X179345787Y-123267764D01*
X177730500Y-123267764D01*
X177730500Y-119974500D01*
X177750185Y-119907461D01*
X177802989Y-119861706D01*
X177854500Y-119850500D01*
X225305500Y-119850500D01*
X225372539Y-119870185D01*
G37*
%TD.AperFunction*%
%TD*%
%TA.AperFunction,Conductor*%
%TO.N,Earth*%
G36*
X188286589Y-127799685D02*
G01*
X188300752Y-127810287D01*
X188306625Y-127815376D01*
X188437542Y-127875165D01*
X188580000Y-127895647D01*
X189115764Y-127895647D01*
X189615763Y-127895647D01*
X190077785Y-127895647D01*
X190080000Y-127895647D01*
X190151961Y-127890500D01*
X190290053Y-127849953D01*
X190368272Y-127799684D01*
X190435311Y-127780000D01*
X193456000Y-127780000D01*
X193523039Y-127799685D01*
X193568794Y-127852489D01*
X193580000Y-127904000D01*
X193580000Y-133138637D01*
X193560315Y-133205676D01*
X193543681Y-133226318D01*
X191706319Y-135063681D01*
X191644996Y-135097166D01*
X191618638Y-135100000D01*
X184351362Y-135100000D01*
X184284323Y-135080315D01*
X184263681Y-135063681D01*
X183926318Y-134726318D01*
X183892833Y-134664995D01*
X183890000Y-134638646D01*
X183890000Y-130131362D01*
X183909685Y-130064323D01*
X183926319Y-130043681D01*
X186153681Y-127816319D01*
X186215004Y-127782834D01*
X186241362Y-127780000D01*
X188219550Y-127780000D01*
X188286589Y-127799685D01*
G37*
%TD.AperFunction*%
%TD*%
M02*
